<?xml version="1.0" encoding="UTF-8"?>
<svg width="108px" height="85px" viewBox="0 0 108 85" version="1.1" xmlns="http://www.w3.org/2000/svg" xmlns:xlink="http://www.w3.org/1999/xlink">
    <g id="--Symbols" stroke="none" stroke-width="1" fill="none" fill-rule="evenodd">
        <g id="header" transform="translate(-1.000000, -10.000000)" fill="#132D75">
            <g id="logo" transform="translate(1.000000, 10.000000)">
                <path d="M65.585,53.433 C64.532,53.085 63.762,52.884 62.505,52.884 C61.58,52.884 60.477,53.209 60.477,54.306 C60.477,56.35 66.457,55.054 66.457,59.688 C66.457,62.68 63.711,63.877 60.913,63.877 C59.602,63.877 58.268,63.653 57.01,63.329 L57.216,60.586 C58.294,61.108 59.423,61.434 60.603,61.434 C61.477,61.434 62.863,61.108 62.863,59.864 C62.863,57.346 56.882,59.065 56.882,54.43 C56.882,51.664 59.372,50.44 62.067,50.44 C63.685,50.44 64.738,50.691 65.815,50.915 L65.585,53.433" id="Fill-2"></path>
                <polygon id="Fill-3" points="81.603 63.594 85.044 63.594 85.044 50.757 81.603 50.757"></polygon>
                <path d="M106.561,53.433 C105.509,53.085 104.739,52.884 103.481,52.884 C102.555,52.884 101.452,53.209 101.452,54.306 C101.452,56.35 107.434,55.054 107.434,59.688 C107.434,62.68 104.687,63.877 101.889,63.877 C100.579,63.877 99.245,63.653 97.986,63.329 L98.192,60.586 C99.27,61.108 100.401,61.434 101.58,61.434 C102.453,61.434 103.84,61.108 103.84,59.864 C103.84,57.346 97.858,59.065 97.858,54.43 C97.858,51.664 100.349,50.44 103.046,50.44 C104.662,50.44 105.714,50.691 106.792,50.915 L106.561,53.433" id="Fill-4"></path>
                <polyline id="Fill-5" points="74.884 56.51 79.758 50.757 75.701 50.757 71.594 55.892 71.543 55.892 71.543 43.849 68.102 44.9 68.102 63.594 71.543 63.594 71.543 57.362 71.594 57.362 76.01 63.594 80.373 63.594 74.884 56.51"></polyline>
                <polyline id="Fill-6" points="87.264 44.9 87.264 63.594 90.703 63.594 90.703 43.849 87.264 44.9"></polyline>
                <polyline id="Fill-7" points="92.686 44.9 92.684 44.9 92.684 63.594 96.125 63.594 96.125 43.849 92.686 44.9"></polyline>
                <path d="M85.312,45.965 C85.312,44.905 84.453,44.049 83.396,44.049 C82.339,44.049 81.481,44.905 81.481,45.965 C81.481,47.023 82.339,47.881 83.396,47.881 C84.453,47.881 85.312,47.023 85.312,45.965" id="Fill-8"></path>
                <path d="M25.572,62.685 C22.951,62.685 21.19,60.534 21.19,57.331 C21.19,54.129 22.951,51.978 25.572,51.978 C28.194,51.978 29.956,54.129 29.956,57.331 C29.956,60.534 28.194,62.685 25.572,62.685 M25.572,50.722 C21.096,50.722 19.508,54.281 19.508,57.331 C19.508,60.381 21.096,63.941 25.572,63.941 C30.05,63.941 31.638,60.381 31.638,57.331 C31.638,54.281 30.05,50.722 25.572,50.722" id="Fill-9"></path>
                <path d="M34.548,53.043 L34.548,50.972 L33.122,50.972 L33.123,63.594 L34.65,63.594 L34.65,57.358 L34.648,57.277 C34.65,54.952 35.31,52.173 38.447,52.173 L38.924,52.195 L38.93,52.146 L39.006,50.674 L38.829,50.673 C36.709,50.673 35.273,51.473 34.548,53.043" id="Fill-10"></path>
                <path d="M49.431,62.637 C45.893,62.637 45.51,58.893 45.51,57.283 C45.51,55.673 45.893,51.929 49.431,51.929 C52.14,51.929 53.354,54.617 53.354,57.283 C53.354,59.948 52.14,62.637 49.431,62.637 M54.819,44.554 L53.354,45.003 L53.354,52.806 C53.035,52.272 51.843,50.64 49.174,50.672 C44.757,50.729 43.829,54.297 43.829,57.283 C43.829,61.359 45.877,63.893 49.175,63.893 C51.139,63.893 52.467,63.17 53.354,61.637 L53.354,63.594 L54.881,63.594 L54.881,44.535 L54.819,44.554" id="Fill-11"></path>
                <polyline id="Fill-12" points="42.066 44.555 40.6 45.002 40.6 63.594 42.128 63.594 42.128 44.535 42.066 44.555"></polyline>
                <path d="M1.64,50.972 L-1.77635684e-15,50.972 L0.02,51.035 C0.099,51.273 4.132,63.449 4.169,63.56 L4.18,63.594 L6.066,63.594 C6.066,63.594 9.613,52.667 9.634,52.601 L9.751,52.601 C9.773,52.667 13.319,63.594 13.319,63.594 L15.207,63.594 L19.489,50.972 L17.966,50.972 C17.966,50.972 14.368,61.898 14.346,61.964 L14.229,61.964 C14.209,61.898 10.764,50.972 10.764,50.972 L8.878,50.972 C8.878,50.972 5.254,61.898 5.232,61.964 L5.115,61.964 C5.095,61.897 1.675,50.972 1.675,50.972 L1.64,50.972" id="Fill-13"></path>
                <path d="M78.41,22.129 C78.41,22.129 84.554,21.042 86.566,16.157 C86.566,16.157 122.339,23.484 101.221,42.567 C101.221,42.567 109.058,35.188 104.681,29.285 C104.681,29.285 107.124,36.613 97.557,41.549 C97.557,41.549 118.305,26.812 78.41,22.129" id="Fill-14"></path>
                <path d="M98.011,19.457 C100.513,20.694 102.264,21.91 103.288,22.709 C103.737,9.901 94.555,2.741 94.555,2.741 C94.288,3.562 93.486,4.479 92.341,4.898 C91.196,5.318 90.509,6.691 90.509,6.691 C94.997,10.424 97.153,14.981 98.011,19.457" id="Fill-15"></path>
                <path d="M85.616,17.064 C86.158,16.255 86.31,15.698 86.31,15.698 C88.674,16.119 90.797,16.673 92.686,17.292 C88.766,6.116 81.477,0 81.477,0 C81.274,0.585 79.136,1.653 77.686,2.29 C76.236,2.926 76.617,5.623 76.617,5.623 C80.604,8.917 83.503,12.949 85.616,17.064" id="Fill-16"></path>
                <path d="M100.612,29.443 C100.119,34.958 96.845,40.811 96.845,40.811 C99.156,37.295 100.737,33.993 101.758,30.917 C101.472,30.398 101.085,29.906 100.612,29.443" id="Fill-17"></path>
                <path d="M100.183,29.052 C99.644,28.589 99.02,28.154 98.329,27.748 C97.755,33.681 95.776,38.14 95.776,38.14 C96.921,36.842 97.798,34.743 97.798,34.743 C97.837,36.231 96.615,39.171 96.615,39.171 C98.716,35.795 99.722,31.693 100.183,29.052" id="Fill-18"></path>
                <path d="M87.767,40.604 C86.495,39.918 84.651,39.189 80.86,36.254 C83.729,38.413 88.52,39.794 88.52,39.794 C77.943,34.425 75.637,29.558 75.637,29.558 C74.619,29.525 74.006,30.171 73.602,30.393 C73.199,30.613 72.099,30.595 72.099,30.595 C76.13,37.094 87.767,40.604 87.767,40.604" id="Fill-19"></path>
                <path d="M83.036,23.108 C79.522,22.526 76.941,22.301 76.941,22.301 C78.345,21.948 79.54,21.52 80.563,21.053 C75.617,17.45 70.689,16.564 70.689,16.564 C70.689,16.564 69.773,16.869 69.645,18.396 C69.519,19.922 68.348,20.126 68.348,20.126 C86.82,25.062 89.593,40.277 89.593,40.277 C88.334,33.407 85.662,29.019 85.662,29.019 C88.486,31.919 90.433,39.285 90.433,39.285 C89.806,31.671 86.648,26.537 83.036,23.108" id="Fill-20"></path>
                <path d="M88.563,24.209 C91.223,32.414 91.273,39.361 91.273,39.361 C93.241,35.545 92.723,26.767 92.723,26.767 C94.555,30.354 94.326,40.124 94.326,40.124 C95.265,34.99 95.302,30.295 94.763,26.069 C92.813,25.321 90.669,24.708 88.563,24.209" id="Fill-21"></path>
                <path d="M2.841,74.204 L4.661,74.204 C5.742,74.221 6.723,73.988 7.604,73.506 C8.502,73.024 8.967,72.192 9.001,71.012 C9.001,70.297 8.884,69.731 8.651,69.316 C8.419,68.9 8.103,68.602 7.704,68.418 C7.305,68.219 6.839,68.094 6.307,68.044 C5.775,68.011 5.21,67.994 4.611,67.994 L2.841,67.994 L2.841,74.204 Z M1.12,66.498 L5.609,66.498 C8.934,66.448 10.638,67.953 10.722,71.012 C10.705,72.143 10.331,73.049 9.599,73.731 C8.867,74.429 7.953,74.861 6.856,75.027 L6.856,75.077 C7.521,75.161 8.003,75.377 8.302,75.726 C8.468,75.893 8.61,76.1 8.727,76.35 C8.859,76.599 8.984,76.873 9.101,77.173 L12.068,83.906 L10.173,83.906 L7.654,78.021 C7.188,76.939 6.706,76.267 6.208,76 C5.958,75.851 5.675,75.76 5.359,75.726 C5.044,75.709 4.677,75.701 4.262,75.701 L2.841,75.701 L2.841,83.906 L1.12,83.906 L1.12,66.498 L1.12,66.498 Z" id="Fill-22"></path>
                <path d="M22.662,80.913 C22.646,81.878 22.679,82.876 22.762,83.906 L21.24,83.906 L21.24,81.637 L21.191,81.637 C21.074,81.92 20.916,82.202 20.717,82.484 C20.517,82.784 20.259,83.067 19.944,83.333 C19.628,83.582 19.237,83.781 18.772,83.932 C18.306,84.114 17.74,84.206 17.075,84.206 C15.529,84.189 14.415,83.724 13.733,82.809 C13.051,81.911 12.719,80.747 12.735,79.317 L12.735,71.187 L14.307,71.187 L14.307,78.918 C14.307,80.132 14.548,81.08 15.03,81.762 C15.496,82.493 16.26,82.858 17.325,82.858 C18.04,82.858 18.647,82.709 19.146,82.41 C19.644,82.127 20.027,81.762 20.293,81.313 C20.592,80.847 20.8,80.349 20.916,79.816 C21.032,79.284 21.091,78.752 21.091,78.22 L21.091,71.187 L22.662,71.187 L22.662,80.913" id="Fill-23"></path>
                <path d="M27.7,82.858 C28.482,82.858 29.147,82.651 29.695,82.235 C30.228,81.853 30.502,81.305 30.519,80.589 C30.502,79.841 30.194,79.251 29.596,78.818 C28.997,78.403 28.29,78.029 27.476,77.696 C27.093,77.514 26.728,77.322 26.379,77.122 C26.029,76.923 25.696,76.698 25.381,76.449 C25.098,76.184 24.865,75.875 24.682,75.526 C24.499,75.193 24.408,74.803 24.408,74.354 C24.425,73.091 24.857,72.192 25.705,71.66 C26.52,71.146 27.467,70.887 28.548,70.887 C28.914,70.887 29.388,70.922 29.97,70.991 C30.552,71.096 31.126,71.261 31.691,71.485 L31.541,72.833 C30.627,72.45 29.687,72.251 28.723,72.234 C27.908,72.234 27.259,72.383 26.777,72.68 C26.528,72.829 26.337,73.035 26.204,73.3 C26.054,73.564 25.979,73.911 25.979,74.341 C25.979,74.606 26.07,74.854 26.254,75.084 C26.437,75.3 26.678,75.497 26.977,75.679 C27.276,75.844 27.617,76.018 28,76.199 C28.382,76.366 28.756,76.55 29.122,76.75 C29.953,77.101 30.676,77.567 31.292,78.151 C31.907,78.735 32.223,79.544 32.239,80.578 C32.239,81.245 32.106,81.804 31.841,82.254 C31.558,82.722 31.2,83.097 30.768,83.38 C29.837,83.93 28.848,84.206 27.8,84.206 C26.569,84.206 25.381,84.006 24.233,83.607 L24.383,82.061 C25.347,82.576 26.453,82.843 27.7,82.858" id="Fill-24"></path>
                <path d="M36.155,82.858 C36.936,82.858 37.602,82.651 38.15,82.235 C38.682,81.853 38.957,81.305 38.973,80.589 C38.957,79.841 38.649,79.251 38.05,78.818 C37.452,78.403 36.745,78.029 35.93,77.696 C35.548,77.514 35.182,77.322 34.833,77.122 C34.484,76.923 34.151,76.698 33.836,76.449 C33.552,76.184 33.32,75.875 33.137,75.526 C32.954,75.193 32.863,74.803 32.863,74.354 C32.879,73.091 33.312,72.192 34.16,71.66 C34.974,71.146 35.922,70.887 37.003,70.887 C37.368,70.887 37.842,70.922 38.425,70.991 C39.006,71.096 39.58,71.261 40.146,71.485 L39.996,72.833 C39.081,72.45 38.142,72.251 37.177,72.234 C36.363,72.234 35.714,72.383 35.232,72.68 C34.983,72.829 34.792,73.035 34.658,73.3 C34.509,73.564 34.434,73.911 34.434,74.341 C34.434,74.606 34.525,74.854 34.709,75.084 C34.891,75.3 35.133,75.497 35.432,75.679 C35.731,75.844 36.071,76.018 36.454,76.199 C36.837,76.366 37.211,76.55 37.577,76.75 C38.408,77.101 39.131,77.567 39.747,78.151 C40.361,78.735 40.677,79.544 40.694,80.578 C40.694,81.245 40.561,81.804 40.295,82.254 C40.012,82.722 39.655,83.097 39.223,83.38 C38.291,83.93 37.302,84.206 36.254,84.206 C35.024,84.206 33.836,84.006 32.688,83.607 L32.838,82.061 C33.802,82.576 34.908,82.843 36.155,82.858" id="Fill-25"></path>
                <path d="M42.265,83.906 L43.836,83.906 L43.836,71.187 L42.265,71.187 L42.265,83.906 Z M42.265,67.795 L43.836,67.795 L43.836,65.699 L42.265,65.699 L42.265,67.795 Z" id="Fill-26"></path>
                <path d="M53.713,77.496 L53.264,77.496 C52.582,77.496 51.9,77.514 51.219,77.547 C50.504,77.613 49.855,77.755 49.274,77.971 C48.691,78.17 48.226,78.478 47.877,78.894 C47.494,79.309 47.303,79.866 47.303,80.564 C47.303,81.379 47.569,81.961 48.101,82.31 C48.6,82.676 49.215,82.858 49.947,82.858 C50.861,82.858 51.584,82.676 52.117,82.31 C52.632,81.961 53.006,81.546 53.239,81.064 C53.488,80.548 53.63,80.041 53.663,79.542 C53.696,79.026 53.713,78.603 53.713,78.27 L53.713,77.496 Z M53.862,81.861 L53.813,81.861 C53.447,82.609 52.89,83.183 52.142,83.582 C51.394,83.981 50.604,84.189 49.772,84.206 C48.891,84.189 48.176,84.047 47.628,83.781 C47.062,83.532 46.629,83.217 46.33,82.834 C45.798,82.003 45.548,81.263 45.582,80.614 C45.582,79.55 45.84,78.71 46.355,78.095 C46.854,77.481 47.494,77.039 48.276,76.773 C49.057,76.491 49.905,76.308 50.82,76.225 C51.718,76.175 52.582,76.149 53.414,76.149 L53.713,76.149 L53.713,75.501 C53.763,73.323 52.799,72.234 50.82,72.234 C49.506,72.218 48.259,72.566 47.079,73.281 L47.079,71.785 C48.259,71.221 49.506,70.922 50.82,70.887 C53.829,70.855 55.317,72.434 55.284,75.626 L55.284,81.237 C55.268,82.202 55.309,83.092 55.409,83.906 L53.862,83.906 L53.862,81.861 L53.862,81.861 Z" id="Fill-27"></path>
            </g>
        </g>
    </g>
</svg>