<svg id="svg" version="1.1" xmlns="http://www.w3.org/2000/svg" xmlns:xlink="http://www.w3.org/1999/xlink" width="400" height="112.4940617577197" viewBox="0, 0, 400,112.4940617577197"><g id="svgg"><path id="path0" d="M154.500 7.603 C 153.904 7.636,152.404 7.747,151.167 7.849 C 149.929 7.952,148.823 8.040,148.708 8.046 C 148.594 8.051,148.500 8.108,148.500 8.171 C 148.500 8.235,147.998 8.339,147.385 8.402 C 145.850 8.559,141.886 9.302,141.536 9.498 C 141.379 9.586,140.442 9.847,139.454 10.077 C 138.466 10.307,137.341 10.636,136.954 10.807 C 136.567 10.978,135.575 11.328,134.750 11.584 C 133.925 11.841,133.208 12.114,133.158 12.191 C 133.107 12.268,132.544 12.510,131.908 12.729 C 130.697 13.145,129.808 13.516,129.667 13.664 C 129.564 13.770,129.009 14.035,127.922 14.496 C 127.467 14.689,127.055 14.908,127.006 14.984 C 126.957 15.060,126.485 15.325,125.958 15.573 C 125.431 15.821,124.906 16.114,124.791 16.223 C 124.677 16.332,124.096 16.676,123.500 16.988 C 122.904 17.300,122.357 17.655,122.283 17.777 C 122.210 17.900,122.080 18.000,121.994 18.000 C 121.773 18.000,119.434 19.577,117.417 21.087 C 116.867 21.498,116.001 22.127,115.493 22.483 C 114.985 22.840,114.469 23.253,114.347 23.401 C 114.224 23.549,113.833 23.833,113.478 24.032 C 113.124 24.232,112.833 24.454,112.833 24.526 C 112.833 24.599,112.627 24.768,112.375 24.901 C 112.123 25.035,111.729 25.320,111.500 25.533 C 111.271 25.747,110.708 26.221,110.250 26.586 C 109.792 26.951,109.317 27.345,109.194 27.461 C 109.071 27.577,108.702 27.877,108.373 28.128 C 108.045 28.378,107.571 28.771,107.321 29.000 C 107.071 29.229,106.516 29.717,106.088 30.083 C 105.660 30.450,105.072 30.971,104.780 31.240 C 104.489 31.510,103.500 32.409,102.583 33.239 C 100.916 34.748,83.667 51.969,83.667 52.125 C 83.667 52.170,83.798 52.105,83.958 51.979 C 85.684 50.624,79.087 57.321,75.917 60.142 C 70.104 65.315,59.404 73.265,55.758 75.120 C 55.304 75.351,54.554 75.927,54.091 76.399 C 50.625 79.939,38.268 83.013,30.204 82.342 C 24.180 81.840,18.706 79.668,14.071 75.939 C 10.858 73.355,6.900 68.306,7.511 67.571 C 7.827 67.190,7.890 67.245,9.266 69.125 C 10.596 70.941,13.298 73.795,14.667 74.829 C 15.401 75.384,15.407 75.386,14.960 74.899 L 14.503 74.402 15.683 73.743 C 17.804 72.557,18.913 71.921,19.335 71.648 C 22.203 69.792,25.140 68.307,25.531 68.516 C 26.142 68.841,26.905 69.398,27.050 69.625 C 27.123 69.740,27.273 69.831,27.383 69.828 C 27.493 69.825,27.358 69.632,27.083 69.398 C 25.985 68.466,23.502 65.934,23.414 65.658 C 23.363 65.496,23.217 65.324,23.090 65.276 C 22.963 65.227,22.654 64.826,22.403 64.385 C 22.152 63.944,21.865 63.508,21.765 63.415 C 21.394 63.071,19.842 59.707,19.497 58.500 C 19.301 57.813,19.076 57.100,18.996 56.917 C 15.501 48.865,19.906 35.317,28.117 28.865 C 30.197 27.230,30.145 27.276,29.543 27.607 C 29.246 27.770,28.458 28.337,27.793 28.867 C 26.245 30.101,26.495 30.225,25.039 27.500 C 24.721 26.904,24.407 26.379,24.342 26.333 C 24.276 26.287,23.983 25.776,23.692 25.198 C 23.400 24.619,22.998 23.925,22.799 23.656 L 22.437 23.167 22.802 22.827 C 23.003 22.640,23.167 22.525,23.167 22.572 C 23.167 22.618,23.440 22.471,23.773 22.245 C 24.107 22.019,24.444 21.833,24.523 21.833 C 24.602 21.833,24.667 21.765,24.667 21.682 C 24.667 21.599,24.517 21.570,24.333 21.618 C 24.150 21.666,24.000 21.764,24.000 21.835 C 24.000 21.906,23.697 22.085,23.327 22.233 C 22.609 22.520,19.655 24.257,19.506 24.479 C 19.457 24.552,18.979 24.890,18.443 25.230 C 17.908 25.570,17.308 26.004,17.110 26.194 C 16.912 26.385,16.563 26.664,16.333 26.815 C 14.618 27.949,9.167 33.729,8.365 35.265 C 8.265 35.457,7.955 35.858,7.675 36.158 C 7.395 36.457,7.167 36.806,7.167 36.934 C 7.167 37.062,7.020 37.313,6.841 37.493 C 6.661 37.672,6.272 38.291,5.975 38.868 C 5.678 39.445,5.384 39.954,5.322 40.000 C 5.174 40.109,4.167 42.271,4.167 42.479 C 4.167 42.567,4.091 42.664,3.998 42.695 C 3.905 42.726,3.611 43.363,3.344 44.110 C 3.077 44.857,2.742 45.693,2.600 45.968 C 2.458 46.243,2.120 47.244,1.849 48.192 C 1.578 49.141,1.245 50.292,1.108 50.750 C 0.119 54.060,-0.296 61.185,0.253 65.450 C 0.540 67.680,1.128 70.759,1.342 71.153 C 1.421 71.298,1.604 71.867,1.748 72.417 C 1.892 72.967,2.278 74.129,2.605 75.000 C 2.932 75.871,3.277 76.790,3.370 77.042 C 3.464 77.294,3.604 77.500,3.682 77.500 C 3.828 77.500,3.710 77.042,3.488 76.750 C 3.419 76.658,3.346 76.508,3.328 76.417 C 3.309 76.325,3.225 76.071,3.142 75.852 C 3.059 75.634,2.972 75.334,2.949 75.186 C 2.926 75.038,2.849 74.823,2.777 74.708 C 2.468 74.213,2.909 74.210,3.881 74.701 C 4.451 74.988,4.940 75.280,4.968 75.349 C 4.996 75.418,5.517 75.715,6.126 76.008 C 6.734 76.302,7.323 76.632,7.433 76.743 C 7.544 76.853,8.073 77.163,8.609 77.430 C 9.145 77.697,9.691 78.018,9.823 78.144 C 9.955 78.269,10.372 78.505,10.750 78.667 C 11.128 78.829,11.545 79.064,11.677 79.190 C 11.809 79.315,12.355 79.636,12.891 79.904 C 13.427 80.171,13.952 80.474,14.058 80.577 C 14.164 80.680,14.813 81.053,15.500 81.406 C 16.188 81.758,16.787 82.099,16.833 82.162 C 16.879 82.226,17.404 82.532,18.000 82.843 C 18.596 83.154,19.122 83.462,19.170 83.527 C 19.218 83.592,19.717 83.874,20.280 84.153 C 20.843 84.433,21.329 84.720,21.360 84.792 C 21.391 84.864,21.917 85.167,22.529 85.466 C 23.141 85.764,23.666 86.068,23.696 86.140 C 23.726 86.212,24.331 86.556,25.042 86.905 C 25.752 87.254,26.333 87.591,26.333 87.654 C 26.333 87.717,26.858 88.023,27.500 88.333 C 28.142 88.644,28.667 88.944,28.667 89.000 C 28.667 89.056,29.192 89.356,29.833 89.667 C 30.475 89.977,31.000 90.279,31.000 90.338 C 31.000 90.397,31.525 90.700,32.167 91.012 C 32.808 91.324,33.333 91.625,33.333 91.681 C 33.333 91.737,33.840 92.038,34.458 92.348 C 35.077 92.659,35.681 93.006,35.801 93.121 C 35.921 93.235,36.521 93.573,37.135 93.873 C 37.748 94.172,38.275 94.474,38.306 94.544 C 38.338 94.615,38.824 94.901,39.386 95.180 C 39.949 95.459,40.449 95.748,40.497 95.822 C 40.544 95.896,41.071 96.201,41.667 96.500 C 42.262 96.799,42.788 97.099,42.833 97.167 C 42.879 97.235,43.398 97.533,43.987 97.829 C 44.576 98.125,45.159 98.468,45.282 98.591 C 45.405 98.714,46.011 99.062,46.628 99.362 C 47.245 99.663,47.858 100.014,47.990 100.141 C 48.121 100.268,48.538 100.505,48.917 100.667 C 49.295 100.829,49.712 101.067,49.844 101.197 C 49.976 101.326,50.590 101.685,51.208 101.994 C 51.827 102.304,52.333 102.605,52.333 102.663 C 52.333 102.721,52.652 102.912,53.042 103.086 C 53.593 103.333,53.676 103.418,53.417 103.468 C 53.233 103.503,53.008 103.610,52.917 103.704 C 52.555 104.077,60.790 103.119,61.615 102.693 C 61.781 102.607,62.704 102.371,63.667 102.168 C 65.372 101.808,67.382 101.223,69.750 100.397 C 72.776 99.341,74.255 98.772,74.306 98.642 C 74.336 98.564,74.428 98.500,74.510 98.500 C 74.591 98.500,75.150 98.275,75.750 98.000 C 76.350 97.725,76.915 97.500,77.004 97.500 C 77.094 97.500,77.167 97.425,77.167 97.333 C 77.167 97.242,77.236 97.167,77.321 97.167 C 77.537 97.167,79.657 96.137,81.250 95.258 C 81.983 94.854,83.108 94.246,83.750 93.907 C 84.392 93.568,84.954 93.236,85.000 93.169 C 85.046 93.101,85.346 92.914,85.667 92.753 C 85.987 92.592,86.680 92.169,87.206 91.813 C 87.732 91.458,88.199 91.167,88.242 91.167 C 88.324 91.167,90.677 89.623,92.750 88.210 C 94.624 86.933,96.158 85.796,96.915 85.125 C 97.303 84.781,97.687 84.500,97.769 84.499 C 97.850 84.499,98.184 84.255,98.510 83.958 C 98.837 83.660,99.624 82.981,100.260 82.448 C 100.896 81.916,101.642 81.276,101.917 81.026 C 102.192 80.777,102.703 80.361,103.053 80.103 C 103.402 79.844,103.645 79.590,103.593 79.537 C 103.540 79.484,103.272 79.656,102.998 79.918 C 102.724 80.181,102.500 80.339,102.500 80.269 C 102.500 80.199,105.252 77.354,108.615 73.946 C 115.366 67.105,123.481 58.625,126.879 54.857 C 131.145 50.128,139.626 42.167,140.397 42.167 C 140.454 42.167,140.500 43.061,140.500 44.155 C 140.500 46.413,140.589 46.233,138.863 47.454 C 137.480 48.431,134.807 50.490,134.583 50.749 C 134.492 50.856,134.049 51.222,133.600 51.564 C 133.151 51.906,132.629 52.387,132.442 52.634 L 132.100 53.083 132.508 52.750 C 132.733 52.567,133.142 52.218,133.417 51.975 C 134.525 50.994,135.285 50.383,135.958 49.931 C 136.348 49.669,136.667 49.393,136.667 49.318 C 136.667 49.244,136.926 49.059,137.242 48.909 C 137.559 48.759,137.906 48.530,138.013 48.401 C 138.120 48.272,138.311 48.167,138.437 48.167 C 138.563 48.167,138.667 48.100,138.667 48.019 C 138.667 47.831,140.865 46.408,142.250 45.699 C 142.525 45.558,142.793 45.380,142.845 45.302 C 143.063 44.978,147.653 42.667,148.079 42.667 C 148.203 42.667,148.331 42.594,148.361 42.504 C 148.423 42.325,150.477 41.780,152.667 41.363 C 156.221 40.685,164.316 41.453,165.667 42.596 C 165.804 42.712,166.142 42.863,166.417 42.930 C 167.053 43.086,168.383 43.649,168.497 43.811 C 168.544 43.879,168.883 44.072,169.250 44.241 C 169.617 44.409,170.317 44.818,170.806 45.149 C 171.295 45.479,171.867 45.862,172.078 46.000 C 174.012 47.264,178.167 51.659,178.167 52.440 C 178.167 52.521,178.335 52.776,178.542 53.007 C 179.028 53.552,180.538 56.609,181.007 58.000 C 181.209 58.596,181.471 59.308,181.589 59.583 C 182.341 61.324,182.866 65.301,182.800 68.752 C 182.757 70.954,182.784 71.297,182.975 71.045 C 183.204 70.745,183.143 65.014,182.897 63.708 C 182.815 63.270,182.849 63.167,183.078 63.167 C 183.234 63.167,183.330 63.074,183.292 62.960 C 183.254 62.846,183.324 62.653,183.446 62.530 C 183.569 62.407,183.622 62.230,183.565 62.137 C 183.500 62.032,183.591 62.037,183.802 62.150 C 183.991 62.251,184.562 62.333,185.072 62.333 C 185.702 62.333,186.001 62.400,186.003 62.542 C 186.004 62.686,186.043 62.694,186.128 62.567 C 186.363 62.213,187.175 62.184,187.385 62.521 C 187.497 62.700,187.771 62.833,188.026 62.833 C 188.272 62.833,188.510 62.927,188.557 63.042 C 188.620 63.198,188.685 63.188,188.818 63.000 C 188.915 62.862,188.996 62.834,188.997 62.937 C 188.999 63.040,189.307 63.173,189.682 63.233 C 190.597 63.380,192.611 64.438,192.806 64.875 C 192.836 64.944,192.967 65.000,193.097 65.000 C 193.227 65.000,193.333 65.063,193.333 65.140 C 193.333 65.217,193.521 65.365,193.750 65.470 C 193.979 65.574,194.167 65.774,194.167 65.913 C 194.167 66.053,194.242 66.167,194.333 66.167 C 194.425 66.167,194.500 66.244,194.500 66.339 C 194.500 66.434,194.717 66.723,194.981 66.982 C 195.246 67.241,195.552 67.619,195.661 67.823 C 195.840 68.158,195.879 68.168,196.059 67.922 C 196.348 67.527,196.935 68.249,197.246 69.380 C 197.655 70.871,197.702 71.000,197.833 71.000 C 197.903 71.000,198.046 71.341,198.151 71.757 C 198.256 72.174,198.415 72.469,198.504 72.414 C 198.593 72.359,198.652 72.450,198.634 72.615 C 198.590 73.021,199.036 74.500,199.201 74.500 C 199.274 74.500,199.340 74.744,199.348 75.042 L 199.362 75.583 199.519 75.083 C 199.731 74.407,200.512 70.030,200.678 68.583 C 201.164 64.368,200.640 59.009,199.297 54.448 C 198.723 52.499,198.740 50.973,199.340 50.500 C 199.513 50.363,199.814 49.369,199.713 49.268 C 199.661 49.217,199.703 49.074,199.805 48.951 C 199.907 48.828,200.075 48.333,200.178 47.852 C 200.281 47.371,200.462 46.940,200.580 46.895 C 200.698 46.850,200.841 46.517,200.899 46.156 C 200.957 45.795,201.071 45.500,201.153 45.500 C 201.235 45.500,201.263 45.350,201.215 45.167 C 201.166 44.980,201.210 44.833,201.314 44.833 C 201.416 44.833,201.500 44.625,201.500 44.370 C 201.500 44.116,201.631 43.722,201.791 43.495 C 201.951 43.269,202.277 42.497,202.516 41.780 L 202.951 40.476 203.227 41.058 C 203.379 41.378,203.549 41.871,203.606 42.153 C 203.689 42.569,204.000 42.906,204.000 42.581 C 204.000 42.357,203.421 40.407,203.333 40.333 C 203.222 40.242,202.521 38.305,202.382 37.708 C 202.334 37.502,202.224 37.333,202.137 37.333 C 202.051 37.333,202.027 37.258,202.083 37.167 C 202.140 37.075,202.125 37.000,202.050 37.000 C 201.975 37.000,201.739 36.512,201.525 35.917 C 201.185 34.969,200.833 34.503,200.833 35.000 C 200.833 35.092,200.921 35.167,201.028 35.167 C 201.135 35.167,201.176 35.212,201.121 35.268 C 201.065 35.324,201.159 35.632,201.331 35.952 C 201.503 36.272,201.603 36.639,201.554 36.767 C 201.505 36.895,201.539 37.000,201.629 37.000 C 201.720 37.000,201.834 37.150,201.882 37.334 C 201.930 37.517,201.901 37.625,201.818 37.574 C 201.735 37.522,201.667 37.560,201.667 37.657 C 201.667 37.913,201.397 37.873,201.095 37.571 C 200.948 37.424,200.833 37.391,200.833 37.495 C 200.833 37.598,200.740 37.662,200.625 37.639 C 200.510 37.616,200.233 37.698,200.008 37.822 C 199.713 37.985,199.582 37.995,199.536 37.857 C 199.443 37.579,199.167 37.624,199.167 37.917 C 199.167 38.220,198.972 38.239,198.696 37.963 C 198.535 37.801,198.420 37.803,198.149 37.972 C 197.908 38.123,197.745 38.134,197.597 38.011 C 197.481 37.915,197.337 37.885,197.277 37.945 C 197.218 38.005,197.023 37.922,196.845 37.760 C 196.645 37.580,196.437 37.520,196.302 37.604 C 195.911 37.848,195.492 37.839,195.394 37.584 C 195.341 37.447,195.233 37.376,195.153 37.425 C 194.947 37.553,193.667 37.185,193.667 36.999 C 193.667 36.914,193.561 36.885,193.431 36.934 C 193.291 36.988,193.040 36.815,192.816 36.512 C 192.608 36.231,192.304 36.000,192.141 36.000 C 191.978 36.000,191.756 35.831,191.648 35.625 C 191.472 35.292,190.646 34.362,189.542 33.255 C 189.335 33.048,189.167 32.793,189.167 32.689 C 189.167 32.585,189.097 32.500,189.012 32.500 C 188.926 32.500,188.272 31.928,187.557 31.229 C 186.842 30.530,185.994 29.762,185.672 29.521 C 185.351 29.280,184.818 28.821,184.488 28.500 C 184.159 28.179,183.464 27.547,182.944 27.095 C 182.425 26.644,182.000 26.184,182.000 26.073 C 182.000 25.962,181.794 25.742,181.542 25.583 C 181.290 25.424,180.896 25.118,180.667 24.902 C 179.972 24.248,179.046 23.500,178.931 23.500 C 178.872 23.500,178.593 23.238,178.311 22.917 C 178.029 22.596,177.727 22.333,177.638 22.333 C 177.550 22.333,177.225 22.090,176.916 21.792 C 176.607 21.494,175.993 20.940,175.552 20.560 C 175.111 20.181,174.089 19.299,173.280 18.602 C 172.472 17.904,171.760 17.333,171.697 17.333 C 171.635 17.332,171.358 17.126,171.083 16.874 C 170.808 16.622,170.021 15.937,169.333 15.353 C 167.972 14.196,167.148 13.493,165.031 11.684 C 164.269 11.033,163.594 10.498,163.531 10.496 C 163.468 10.494,163.117 10.222,162.750 9.891 C 162.383 9.560,161.752 9.018,161.347 8.686 L 160.610 8.083 161.347 7.995 C 161.752 7.946,162.155 7.964,162.242 8.036 C 162.470 8.225,163.628 8.197,163.750 8.000 C 163.813 7.898,163.541 7.828,163.052 7.821 C 162.611 7.814,162.110 7.781,161.938 7.749 C 161.420 7.651,155.660 7.538,154.500 7.603 M164.068 8.192 C 164.020 8.270,164.260 8.333,164.601 8.333 C 164.943 8.333,165.169 8.280,165.103 8.214 C 164.931 8.042,164.170 8.026,164.068 8.192 M42.250 23.027 C 37.859 23.523,31.431 25.735,30.288 27.144 C 30.175 27.282,30.421 27.188,30.833 26.934 C 32.150 26.122,35.621 24.571,35.776 24.724 C 35.791 24.738,35.927 25.613,36.080 26.667 C 36.232 27.721,36.397 28.752,36.446 28.958 C 36.520 29.266,36.465 29.334,36.143 29.339 C 35.927 29.342,35.450 29.490,35.083 29.667 C 34.717 29.844,34.323 29.991,34.208 29.994 C 34.094 29.997,34.000 30.079,34.000 30.177 C 34.000 30.274,33.927 30.308,33.837 30.252 C 33.747 30.197,33.503 30.246,33.295 30.361 C 33.087 30.477,32.879 30.581,32.833 30.592 C 32.209 30.748,29.000 32.579,29.000 32.780 C 29.000 32.880,30.567 31.957,30.683 31.789 C 30.738 31.709,30.888 31.626,31.017 31.604 C 31.145 31.582,31.550 31.410,31.917 31.222 C 32.283 31.033,32.996 30.745,33.500 30.582 C 34.004 30.418,34.460 30.219,34.512 30.138 C 34.624 29.967,38.435 29.201,39.901 29.055 C 40.460 29.000,41.008 28.883,41.119 28.795 C 41.230 28.707,42.805 28.595,44.619 28.545 C 48.322 28.442,52.017 28.608,51.648 28.860 C 51.472 28.980,51.496 29.005,51.750 28.963 C 52.070 28.911,52.254 23.532,51.946 23.224 C 51.582 22.859,44.932 22.725,42.250 23.027 M172.582 30.328 C 183.291 32.186,192.490 39.021,197.089 48.538 C 198.247 50.934,198.262 51.394,197.116 49.333 C 189.276 35.242,173.639 28.295,158.357 32.114 C 157.988 32.206,157.977 32.187,158.175 31.814 C 159.090 30.088,166.682 29.304,172.582 30.328 M26.586 34.620 L 26.293 35.083 26.679 34.713 C 26.891 34.509,27.023 34.301,26.972 34.249 C 26.920 34.198,26.747 34.365,26.586 34.620 M24.049 37.107 C 23.793 37.440,23.452 37.853,23.292 38.023 C 23.131 38.194,23.069 38.333,23.153 38.333 C 23.281 38.333,23.683 37.866,24.551 36.708 C 24.637 36.594,24.664 36.500,24.611 36.500 C 24.558 36.500,24.305 36.773,24.049 37.107 M204.500 45.240 C 204.500 45.372,204.570 45.524,204.657 45.577 C 204.743 45.630,204.802 45.522,204.788 45.337 C 204.759 44.956,204.500 44.869,204.500 45.240 M204.667 46.073 C 204.667 46.206,204.742 46.360,204.833 46.417 C 204.925 46.473,205.000 46.365,205.000 46.177 C 205.000 45.988,204.925 45.833,204.833 45.833 C 204.742 45.833,204.667 45.941,204.667 46.073 M205.705 53.333 C 205.705 53.654,205.740 53.785,205.782 53.625 C 205.823 53.465,205.823 53.202,205.782 53.042 C 205.740 52.881,205.705 53.012,205.705 53.333 M128.849 56.007 C 127.183 57.666,125.932 58.962,126.068 58.885 C 126.422 58.687,132.019 53.130,131.942 53.053 C 131.907 53.018,130.515 54.348,128.849 56.007 M122.745 61.943 C 122.106 62.553,121.733 62.970,121.917 62.870 C 122.240 62.693,124.123 60.833,123.979 60.833 C 123.939 60.833,123.384 61.333,122.745 61.943 M118.167 66.307 C 117.528 66.966,117.501 67.018,117.987 66.654 C 118.461 66.300,119.192 65.460,118.979 65.516 C 118.945 65.525,118.579 65.881,118.167 66.307 M115.083 69.204 L 114.083 70.212 115.033 69.415 C 115.556 68.976,116.022 68.516,116.070 68.392 C 116.187 68.087,116.214 68.065,115.083 69.204 M112.909 71.192 C 112.521 71.600,112.425 71.758,112.676 71.577 C 113.061 71.298,113.765 70.500,113.625 70.500 C 113.593 70.500,113.271 70.812,112.909 71.192 M52.907 72.245 C 52.729 72.379,52.658 72.489,52.750 72.489 C 52.842 72.489,53.062 72.379,53.240 72.245 C 53.418 72.110,53.489 72.000,53.397 72.000 C 53.305 72.000,53.085 72.110,52.907 72.245 M110.991 72.958 L 110.417 73.583 111.042 73.009 C 111.623 72.474,111.743 72.333,111.616 72.333 C 111.588 72.333,111.307 72.615,110.991 72.958 M51.083 72.833 C 50.659 73.016,51.097 73.016,51.667 72.833 C 52.002 72.726,52.018 72.699,51.750 72.695 C 51.567 72.692,51.267 72.755,51.083 72.833 M48.667 73.356 C 48.254 73.441,47.504 73.568,47.000 73.638 C 46.496 73.709,46.096 73.838,46.112 73.925 C 46.128 74.015,45.624 74.071,44.945 74.056 L 43.750 74.028 44.715 74.160 C 45.962 74.329,46.010 74.403,45.159 74.837 C 44.771 75.035,44.300 75.340,44.112 75.515 C 43.924 75.690,43.678 75.833,43.566 75.833 C 43.453 75.833,43.336 75.894,43.306 75.969 C 43.275 76.044,42.478 76.625,41.535 77.261 C 40.591 77.897,39.466 78.665,39.035 78.969 C 38.603 79.273,37.688 79.859,37.000 80.272 L 35.750 81.021 36.750 80.917 C 38.986 80.685,40.390 80.298,40.947 79.761 C 41.238 79.480,41.910 78.875,42.440 78.417 C 42.971 77.958,43.585 77.396,43.806 77.167 C 44.026 76.938,44.273 76.769,44.353 76.792 C 44.434 76.815,44.500 76.735,44.500 76.615 C 44.500 76.495,44.798 76.177,45.163 75.907 C 45.527 75.637,45.828 75.342,45.831 75.250 C 45.833 75.158,46.111 74.896,46.447 74.667 C 46.784 74.438,47.140 74.171,47.238 74.074 C 47.336 73.978,47.960 73.802,48.624 73.684 C 49.289 73.566,49.874 73.402,49.926 73.318 C 50.037 73.138,49.684 73.149,48.667 73.356 M109.326 74.450 L 108.583 75.234 109.275 74.658 C 109.852 74.178,110.285 73.667,110.113 73.667 C 110.089 73.667,109.735 74.019,109.326 74.450 M39.627 74.118 C 39.834 74.158,40.134 74.156,40.294 74.115 C 40.453 74.073,40.283 74.040,39.917 74.042 C 39.550 74.044,39.420 74.078,39.627 74.118 M106.665 76.768 C 105.350 77.905,105.088 78.170,105.750 77.695 C 106.366 77.253,107.948 75.841,107.832 75.837 C 107.786 75.835,107.261 76.254,106.665 76.768 M3.667 77.733 C 3.667 77.769,3.861 78.126,4.099 78.525 C 4.337 78.924,4.480 79.100,4.416 78.917 C 4.050 77.868,3.953 77.667,3.817 77.667 C 3.734 77.667,3.667 77.697,3.667 77.733 M104.417 78.766 C 103.905 79.222,103.870 79.282,104.265 79.022 C 104.730 78.715,105.300 78.163,105.145 78.169 C 105.111 78.171,104.783 78.439,104.417 78.766 M5.294 80.763 C 5.240 80.849,5.302 81.065,5.431 81.242 C 5.684 81.587,5.721 81.450,5.517 80.928 C 5.448 80.750,5.347 80.676,5.294 80.763 M33.627 81.118 C 33.834 81.158,34.134 81.156,34.294 81.115 C 34.453 81.073,34.283 81.040,33.917 81.042 C 33.550 81.044,33.420 81.078,33.627 81.118 M344.742 87.401 C 343.619 87.890,343.013 89.142,343.234 90.520 C 343.749 93.741,348.667 93.278,348.667 90.008 C 348.667 87.926,346.635 86.576,344.742 87.401 M192.917 88.667 C 192.559 89.033,192.337 89.332,192.425 89.330 C 192.568 89.328,193.767 88.000,193.627 88.000 C 193.594 88.000,193.275 88.300,192.917 88.667 M331.750 90.065 C 329.752 90.311,329.833 90.222,329.833 92.177 L 329.833 93.833 328.583 93.833 L 327.333 93.833 327.333 96.000 L 327.333 98.167 328.567 98.167 L 329.800 98.167 329.874 103.125 C 329.953 108.417,330.076 109.300,330.851 110.181 C 331.046 110.402,331.314 110.747,331.448 110.947 C 332.369 112.329,336.646 112.809,339.875 111.894 C 340.132 111.821,340.167 111.575,340.167 109.845 L 340.167 107.880 338.609 107.961 C 335.296 108.135,335.021 107.588,335.006 100.792 L 335.000 98.167 337.583 98.167 L 340.167 98.167 340.167 96.000 L 340.167 93.833 337.574 93.833 L 334.980 93.833 335.032 91.833 L 335.083 89.833 334.167 89.856 C 333.662 89.869,332.575 89.963,331.750 90.065 M166.767 91.489 C 166.890 91.612,165.152 92.177,164.979 92.070 C 164.899 92.021,164.833 92.054,164.833 92.144 C 164.833 92.233,164.608 92.356,164.333 92.417 C 164.058 92.477,163.833 92.604,163.833 92.698 C 163.833 92.792,163.721 92.826,163.583 92.773 C 163.446 92.720,163.333 92.759,163.333 92.858 C 163.333 92.957,163.183 93.000,163.000 92.952 C 162.816 92.904,162.703 92.924,162.748 92.997 C 162.793 93.070,162.550 93.183,162.207 93.247 C 161.864 93.311,161.490 93.441,161.375 93.535 C 161.260 93.630,161.167 93.652,161.167 93.583 C 161.167 93.515,161.055 93.552,160.919 93.665 C 160.782 93.778,160.557 93.827,160.419 93.774 C 160.280 93.721,160.167 93.741,160.167 93.820 C 160.167 93.899,159.914 94.010,159.606 94.068 C 159.049 94.173,159.043 94.183,158.847 95.462 C 158.738 96.170,158.568 96.959,158.469 97.214 C 158.370 97.469,158.321 97.710,158.362 97.751 C 158.665 98.054,163.469 96.408,165.416 95.334 C 166.646 94.655,167.000 94.077,167.000 92.748 C 167.000 92.520,167.056 92.333,167.125 92.333 C 167.194 92.333,167.250 92.124,167.250 91.869 C 167.250 91.543,167.166 91.405,166.966 91.405 C 166.810 91.405,166.721 91.443,166.767 91.489 M189.573 92.027 C 189.084 92.553,189.084 92.554,189.535 92.235 C 189.783 92.060,190.024 91.823,190.071 91.708 C 190.200 91.392,190.107 91.451,189.573 92.027 M359.333 93.276 C 358.117 93.681,357.290 94.101,357.129 94.397 C 356.939 94.747,356.936 94.746,356.836 94.333 L 356.735 93.917 354.201 93.871 L 351.667 93.825 351.667 102.996 L 351.667 112.167 354.250 112.167 L 356.833 112.167 356.833 105.606 C 356.833 98.068,356.768 98.397,358.373 97.920 C 360.009 97.435,361.076 97.682,361.957 98.751 C 362.723 99.679,362.833 100.697,362.833 106.805 L 362.833 112.167 365.425 112.167 L 368.017 112.167 367.991 105.606 C 367.961 98.203,367.908 98.516,369.256 98.012 C 371.156 97.301,372.822 97.826,373.512 99.354 C 373.913 100.241,373.917 100.310,373.968 106.208 L 374.019 112.167 376.593 112.167 L 379.167 112.167 379.165 106.542 C 379.164 98.542,378.818 96.884,376.701 94.734 C 374.649 92.649,369.748 92.575,367.110 94.589 C 366.189 95.292,366.285 95.293,365.609 94.576 C 364.583 93.489,360.954 92.737,359.333 93.276 M387.917 93.474 C 383.806 94.723,381.339 98.202,381.339 102.750 C 381.339 106.236,382.432 108.449,385.379 110.926 C 387.429 112.650,395.802 112.778,396.787 111.100 C 396.858 110.978,397.142 110.762,397.417 110.619 C 398.891 109.854,400.049 107.833,399.013 107.833 C 398.925 107.833,398.342 107.385,397.718 106.836 C 396.356 105.639,396.427 105.647,395.404 106.588 C 392.681 109.094,387.807 108.134,386.701 104.875 L 386.517 104.333 393.280 104.333 L 400.043 104.333 399.952 102.125 C 399.810 98.704,398.961 96.681,396.985 95.056 C 396.672 94.799,396.379 94.550,396.333 94.503 C 396.159 94.323,395.207 93.845,394.493 93.579 C 393.322 93.143,389.222 93.077,387.917 93.474 M343.333 103.000 L 343.333 112.167 345.833 112.167 L 348.333 112.167 348.333 103.000 L 348.333 93.833 345.833 93.833 L 343.333 93.833 343.333 103.000 M392.901 97.570 C 393.902 98.045,394.550 98.680,394.908 99.536 C 395.481 100.908,395.709 100.833,390.917 100.833 C 386.177 100.833,386.375 100.892,386.994 99.679 C 388.092 97.526,390.783 96.565,392.901 97.570 M41.460 103.951 C 41.668 103.991,41.968 103.990,42.127 103.948 C 42.286 103.906,42.117 103.874,41.750 103.875 C 41.383 103.877,41.253 103.911,41.460 103.951 M50.875 103.955 C 51.219 103.991,51.781 103.991,52.125 103.955 C 52.469 103.919,52.188 103.889,51.500 103.889 C 50.813 103.889,50.531 103.919,50.875 103.955 M44.937 104.164 C 45.131 104.242,46.060 104.307,47.000 104.307 C 47.940 104.307,48.869 104.242,49.063 104.164 C 49.283 104.075,48.505 104.021,47.000 104.021 C 45.495 104.021,44.717 104.075,44.937 104.164 " stroke="none" fill="#de2821" fill-rule="evenodd"></path><path id="path1" d="M38.750 17.660 C 38.567 17.736,37.629 17.887,36.667 17.996 C 34.739 18.213,32.195 18.701,31.417 19.003 C 31.142 19.110,30.242 19.409,29.417 19.668 C 28.592 19.927,27.262 20.448,26.461 20.826 C 25.661 21.204,24.984 21.491,24.957 21.465 C 24.930 21.438,24.798 21.511,24.663 21.627 C 24.258 21.974,23.167 22.663,23.167 22.572 C 23.167 22.525,23.003 22.640,22.802 22.827 L 22.437 23.167 22.799 23.656 C 22.998 23.925,23.400 24.619,23.692 25.198 C 23.983 25.776,24.276 26.287,24.342 26.333 C 24.407 26.379,24.721 26.904,25.039 27.500 C 26.480 30.198,26.283 30.080,27.586 29.027 C 33.237 24.461,39.384 22.627,48.153 22.891 C 51.815 23.001,52.352 23.067,55.339 23.776 L 57.262 24.232 57.319 26.241 C 57.440 30.471,57.572 29.995,56.333 29.780 L 55.750 29.679 56.333 29.871 C 56.654 29.976,56.954 30.114,57.000 30.175 C 57.046 30.237,57.796 30.495,58.667 30.749 C 59.538 31.002,60.512 31.339,60.833 31.496 C 61.154 31.654,62.017 31.996,62.750 32.257 C 63.483 32.518,64.121 32.785,64.168 32.851 C 64.214 32.917,64.814 33.199,65.501 33.478 C 66.188 33.757,67.491 34.382,68.396 34.867 C 69.301 35.353,70.466 35.975,70.985 36.250 C 71.503 36.525,72.162 36.919,72.448 37.125 C 72.734 37.331,73.010 37.500,73.062 37.500 C 73.113 37.500,73.627 37.805,74.203 38.178 C 75.649 39.115,76.647 38.888,76.661 37.620 C 76.667 37.160,76.263 36.011,76.035 35.838 C 75.970 35.789,75.661 35.261,75.349 34.666 C 75.036 34.071,74.639 33.396,74.465 33.167 C 74.291 32.938,73.931 32.463,73.666 32.112 C 72.321 30.337,69.577 27.607,67.317 25.796 C 65.910 24.669,63.940 23.333,63.684 23.333 C 63.598 23.333,63.503 23.268,63.472 23.188 C 63.398 22.995,60.136 21.301,59.083 20.910 C 58.625 20.740,58.212 20.548,58.167 20.483 C 58.121 20.418,57.446 20.167,56.667 19.926 C 55.887 19.684,54.875 19.343,54.417 19.167 C 53.349 18.758,50.551 18.204,48.417 17.980 C 47.500 17.883,46.620 17.736,46.461 17.652 C 46.102 17.463,39.208 17.471,38.750 17.660 M50.533 28.755 C 50.699 28.921,51.343 28.984,51.245 28.825 C 51.191 28.738,50.989 28.667,50.796 28.667 C 50.603 28.667,50.484 28.707,50.533 28.755 M184.076 71.597 C 183.936 71.827,183.835 71.846,183.556 71.697 C 183.230 71.522,183.198 71.572,183.011 72.547 C 182.267 76.428,181.792 77.930,180.492 80.516 C 175.667 90.113,166.262 96.942,156.071 98.248 L 155.225 98.357 155.439 97.137 C 155.557 96.466,155.656 95.743,155.660 95.530 C 155.664 95.317,155.786 95.024,155.932 94.878 C 156.396 94.413,155.505 94.164,154.846 94.574 C 154.525 94.774,147.163 94.759,147.025 94.558 C 146.965 94.472,146.169 94.309,145.255 94.196 C 143.418 93.970,140.115 93.199,140.028 92.976 C 139.997 92.897,139.882 92.833,139.771 92.833 C 139.484 92.833,136.464 91.842,136.256 91.680 C 136.161 91.606,135.483 91.314,134.750 91.032 C 133.424 90.521,128.159 87.904,128.000 87.676 C 127.954 87.610,127.392 87.275,126.752 86.931 C 126.111 86.588,125.548 86.249,125.502 86.178 C 125.455 86.108,125.079 85.840,124.667 85.584 C 124.254 85.328,123.643 84.904,123.309 84.643 C 122.610 84.095,121.533 83.991,121.095 84.429 C 120.331 85.193,121.362 87.058,124.631 90.822 C 126.061 92.469,129.528 95.667,129.884 95.667 C 129.928 95.667,130.206 95.892,130.500 96.167 C 130.794 96.442,131.123 96.667,131.230 96.667 C 131.337 96.667,131.685 96.879,132.004 97.138 C 132.322 97.398,132.996 97.829,133.500 98.097 C 134.004 98.364,134.441 98.639,134.471 98.706 C 134.540 98.860,136.565 99.833,136.815 99.833 C 136.917 99.833,137.000 99.898,137.000 99.977 C 137.000 100.057,137.581 100.364,138.292 100.660 C 139.002 100.957,139.771 101.295,140.000 101.411 C 141.467 102.158,146.802 103.684,148.779 103.924 C 149.313 103.988,149.825 104.099,149.917 104.170 C 150.115 104.323,152.829 104.608,155.500 104.756 C 157.421 104.863,162.311 104.605,163.576 104.331 C 163.947 104.251,164.587 104.112,165.000 104.022 C 165.412 103.933,166.425 103.738,167.250 103.589 C 168.977 103.277,173.190 102.004,174.417 101.424 C 174.875 101.207,175.588 100.914,176.000 100.773 C 176.805 100.498,180.010 98.904,180.160 98.704 C 180.209 98.638,180.700 98.367,181.250 98.102 C 181.800 97.838,182.325 97.534,182.417 97.427 C 182.508 97.320,183.015 96.987,183.542 96.687 C 184.070 96.387,184.603 96.040,184.727 95.916 C 184.850 95.792,185.198 95.541,185.499 95.358 C 186.036 95.032,186.856 94.371,187.856 93.458 C 188.133 93.206,188.398 93.000,188.446 93.000 C 188.534 93.000,189.618 91.994,190.892 90.731 C 194.164 87.484,196.758 83.272,196.243 82.041 C 196.109 81.721,196.000 81.290,196.000 81.083 C 196.000 80.877,195.887 80.614,195.750 80.500 C 195.612 80.386,195.500 80.149,195.500 79.974 C 195.500 79.799,195.387 79.613,195.250 79.560 C 195.112 79.508,195.000 79.355,195.000 79.220 C 195.000 79.086,194.887 78.864,194.750 78.726 C 194.612 78.589,194.500 78.332,194.500 78.155 C 194.500 77.978,194.425 77.833,194.333 77.833 C 194.242 77.833,194.167 77.721,194.167 77.583 C 194.167 77.446,194.054 77.333,193.917 77.333 C 193.766 77.333,193.667 77.179,193.667 76.947 C 193.667 76.734,193.442 76.308,193.167 76.000 C 192.892 75.692,192.667 75.378,192.667 75.303 C 192.667 75.078,192.167 75.149,192.160 75.375 C 192.157 75.490,192.051 75.347,191.925 75.058 C 191.799 74.768,191.543 74.483,191.357 74.424 C 191.170 74.365,190.976 74.186,190.925 74.027 C 190.875 73.868,190.365 73.494,189.792 73.196 C 189.219 72.898,188.454 72.474,188.092 72.255 C 187.730 72.035,187.055 71.801,186.592 71.733 C 186.129 71.666,185.637 71.588,185.500 71.560 C 184.323 71.318,184.245 71.320,184.076 71.597 M156.417 94.333 C 156.360 94.425,156.464 94.500,156.647 94.500 C 156.830 94.500,157.027 94.425,157.083 94.333 C 157.140 94.242,157.036 94.167,156.853 94.167 C 156.670 94.167,156.473 94.242,156.417 94.333 " stroke="none" fill="#edac0f" fill-rule="evenodd"></path><path id="path2" d="M259.500 0.107 C 259.500 0.342,260.210 2.594,260.333 2.750 C 260.406 2.842,260.699 3.701,260.984 4.660 C 261.270 5.619,261.578 6.478,261.668 6.568 C 262.268 7.168,262.310 7.167,245.333 7.167 L 228.833 7.167 228.833 10.397 C 228.833 13.607,228.836 13.628,229.208 13.728 C 229.994 13.939,306.588 13.845,306.800 13.633 C 306.941 13.492,307.000 12.515,307.000 10.301 L 307.000 7.168 291.042 7.126 L 275.083 7.083 274.514 5.167 C 274.201 4.112,273.883 3.225,273.806 3.194 C 273.729 3.164,273.667 3.062,273.667 2.969 C 273.667 2.875,273.475 2.169,273.240 1.399 L 272.813 0.000 266.157 0.000 C 262.495 0.000,259.500 0.048,259.500 0.107 M323.333 0.801 C 323.333 1.177,323.820 2.855,323.995 3.083 C 324.066 3.175,324.366 4.075,324.663 5.083 C 324.960 6.092,325.254 6.954,325.318 7.000 C 325.381 7.046,325.682 7.908,325.988 8.917 C 326.294 9.925,326.594 10.787,326.655 10.833 C 326.716 10.879,327.016 11.779,327.322 12.833 C 327.628 13.887,327.928 14.787,327.989 14.833 C 328.050 14.879,328.193 15.235,328.306 15.625 L 328.513 16.333 335.173 16.333 C 340.808 16.333,341.833 16.297,341.833 16.097 C 341.833 15.967,341.769 15.836,341.690 15.806 C 341.612 15.775,341.304 14.925,341.007 13.917 C 340.710 12.908,340.409 12.008,340.338 11.917 C 340.268 11.825,339.968 10.925,339.671 9.917 C 339.375 8.908,339.073 8.008,338.999 7.917 C 338.926 7.825,338.623 6.963,338.326 6.000 C 338.029 5.037,337.737 4.212,337.677 4.167 C 337.617 4.121,337.339 3.296,337.059 2.333 L 336.550 0.583 329.941 0.540 C 323.633 0.498,323.333 0.510,323.333 0.801 M348.871 5.039 L 348.917 8.250 365.542 8.292 C 374.685 8.316,382.167 8.379,382.167 8.433 C 382.167 8.652,381.115 11.929,380.995 12.083 C 380.924 12.175,380.580 13.225,380.231 14.417 C 379.882 15.608,379.551 16.621,379.496 16.667 C 379.441 16.712,379.152 17.537,378.854 18.500 C 378.556 19.462,378.211 20.475,378.088 20.750 C 377.965 21.025,377.661 21.925,377.412 22.750 C 377.164 23.575,376.903 24.325,376.831 24.417 C 376.760 24.508,376.540 25.127,376.344 25.792 L 375.986 27.000 362.410 27.000 L 348.833 27.000 348.833 30.250 L 348.833 33.500 368.592 33.500 L 388.350 33.500 388.285 51.625 C 388.223 69.304,388.152 71.796,387.679 72.917 C 387.564 73.189,386.892 76.421,386.544 78.375 L 386.462 78.833 392.301 78.833 L 398.141 78.833 398.342 78.208 C 398.453 77.865,398.603 77.507,398.676 77.414 C 398.863 77.177,399.432 74.246,399.695 72.167 C 399.868 70.800,399.917 66.132,399.917 50.833 L 399.917 31.250 399.548 30.452 C 399.015 29.296,397.826 28.188,396.435 27.550 L 395.250 27.006 392.310 27.003 L 389.371 27.000 389.868 25.292 C 390.142 24.352,390.424 23.508,390.495 23.417 C 390.566 23.325,390.866 22.462,391.162 21.500 C 391.457 20.537,391.759 19.675,391.833 19.583 C 391.906 19.492,392.209 18.592,392.505 17.583 C 392.801 16.575,393.103 15.674,393.176 15.581 C 393.250 15.487,393.551 14.587,393.847 13.581 C 394.142 12.574,394.442 11.712,394.513 11.665 C 394.757 11.502,395.333 8.934,395.333 8.005 C 395.333 5.439,394.192 3.639,391.685 2.250 C 391.093 1.922,390.729 1.916,369.955 1.872 L 348.826 1.828 348.871 5.039 M240.461 17.595 C 240.344 17.712,240.930 19.840,241.329 20.750 C 241.490 21.117,241.789 21.979,241.993 22.667 C 242.196 23.354,242.462 24.142,242.582 24.417 C 242.703 24.692,242.954 25.385,243.140 25.958 L 243.478 27.000 236.156 27.000 L 228.833 27.000 228.833 52.917 L 228.833 78.833 234.750 78.833 L 240.667 78.833 240.667 56.167 L 240.667 33.500 244.261 33.500 C 247.605 33.500,247.850 33.520,247.772 33.792 C 247.104 36.130,246.749 37.265,246.665 37.333 C 246.608 37.379,246.320 38.204,246.025 39.167 C 245.730 40.129,245.386 41.104,245.260 41.333 C 245.134 41.563,244.978 42.031,244.913 42.375 L 244.796 43.000 251.442 43.000 L 258.087 43.000 258.394 41.931 C 258.562 41.343,258.804 40.660,258.932 40.414 C 259.059 40.168,259.398 39.179,259.685 38.215 C 259.971 37.251,260.304 36.274,260.424 36.043 C 260.543 35.812,260.771 35.145,260.929 34.561 L 261.216 33.500 267.832 33.500 L 274.447 33.500 274.656 34.208 C 274.771 34.598,274.966 35.142,275.089 35.417 C 275.213 35.692,275.554 36.704,275.847 37.667 C 276.140 38.629,276.431 39.454,276.492 39.500 C 276.554 39.546,276.824 40.352,277.092 41.292 L 277.581 43.000 284.207 43.000 C 290.506 43.000,290.833 42.985,290.833 42.696 C 290.833 42.358,290.354 40.843,290.165 40.583 C 290.098 40.492,289.801 39.592,289.505 38.583 C 289.209 37.575,288.907 36.675,288.834 36.583 C 288.761 36.492,288.538 35.863,288.337 35.187 C 288.137 34.511,287.934 33.855,287.885 33.729 C 287.813 33.539,288.416 33.500,291.407 33.500 L 295.016 33.500 294.954 51.625 C 294.891 70.189,294.806 72.642,294.174 74.083 C 294.021 74.432,293.167 78.293,293.167 78.636 C 293.167 78.784,294.604 78.833,298.969 78.833 L 304.771 78.833 305.130 78.011 C 305.538 77.076,306.098 74.484,306.265 72.750 C 306.327 72.108,306.444 71.499,306.525 71.396 C 307.179 70.564,307.187 31.463,306.533 31.010 C 306.459 30.959,306.292 30.654,306.162 30.333 C 305.825 29.499,304.487 28.191,303.373 27.605 L 302.417 27.103 297.364 27.042 L 292.311 26.982 292.424 26.449 C 292.487 26.156,292.673 25.617,292.837 25.250 C 293.002 24.883,293.341 23.871,293.591 23.000 C 293.840 22.129,294.098 21.379,294.165 21.333 C 294.271 21.260,295.333 17.871,295.333 17.604 C 295.333 17.547,292.379 17.500,288.769 17.500 L 282.205 17.500 281.951 18.042 C 281.811 18.340,281.494 19.258,281.246 20.083 C 280.998 20.908,280.736 21.658,280.664 21.750 C 280.592 21.842,280.250 22.892,279.903 24.083 C 279.556 25.275,279.224 26.287,279.166 26.333 C 279.107 26.379,279.011 26.548,278.951 26.708 C 278.850 26.982,278.168 27.000,267.850 27.000 L 256.856 27.000 256.741 26.625 C 256.678 26.419,256.493 25.950,256.330 25.583 C 256.166 25.217,255.784 24.092,255.481 23.083 C 255.178 22.075,254.880 21.212,254.820 21.167 C 254.760 21.121,254.507 20.371,254.257 19.500 C 254.008 18.629,253.726 17.823,253.632 17.708 C 253.454 17.494,240.672 17.384,240.461 17.595 M324.667 27.264 C 324.667 27.648,325.188 29.401,325.331 29.500 C 325.398 29.546,325.701 30.446,326.006 31.500 C 326.310 32.554,326.610 33.454,326.671 33.500 C 326.733 33.546,327.024 34.407,327.320 35.414 C 327.615 36.421,327.915 37.321,327.986 37.414 C 328.057 37.507,328.368 38.408,328.676 39.417 C 328.985 40.425,329.315 41.304,329.410 41.369 C 329.658 41.540,329.636 45.676,329.385 46.183 C 329.277 46.403,328.942 48.533,328.643 50.917 C 328.343 53.300,328.052 55.288,327.997 55.333 C 327.941 55.379,327.653 57.367,327.356 59.750 C 327.060 62.133,326.750 64.233,326.667 64.417 C 326.584 64.600,326.283 66.625,325.996 68.917 C 325.710 71.208,325.410 73.233,325.329 73.417 C 325.178 73.763,324.667 77.591,324.667 78.382 L 324.667 78.833 331.239 78.833 C 337.355 78.833,337.817 78.813,337.895 78.542 C 337.941 78.381,338.185 76.600,338.438 74.583 C 338.690 72.567,338.943 70.879,339.001 70.833 C 339.058 70.787,339.347 68.800,339.644 66.417 C 339.940 64.033,340.251 61.933,340.334 61.750 C 340.417 61.567,340.718 59.542,341.002 57.250 C 341.286 54.958,341.583 52.933,341.663 52.750 C 341.866 52.284,342.833 44.604,342.833 43.459 C 342.833 42.107,342.112 39.006,341.661 38.417 C 341.591 38.325,341.290 37.425,340.993 36.417 C 340.695 35.408,340.403 34.546,340.343 34.500 C 340.283 34.454,339.984 33.554,339.678 32.500 C 339.372 31.446,339.072 30.546,339.012 30.500 C 338.951 30.454,338.677 29.667,338.403 28.750 L 337.904 27.083 331.285 27.040 C 325.298 27.000,324.667 27.022,324.667 27.264 M353.876 40.875 C 353.785 40.990,353.472 42.996,353.180 45.333 C 352.888 47.671,352.584 49.733,352.503 49.917 C 352.423 50.100,352.120 52.163,351.831 54.500 C 351.543 56.837,351.241 58.900,351.162 59.083 C 351.083 59.267,350.937 60.092,350.838 60.917 C 350.565 63.190,349.820 67.570,349.690 67.666 C 349.627 67.712,349.325 68.837,349.020 70.167 C 348.714 71.496,348.407 72.658,348.337 72.750 C 348.147 72.999,347.167 76.403,347.167 76.814 L 347.167 77.171 352.784 77.127 L 358.402 77.083 359.112 75.833 C 359.503 75.146,359.947 74.208,360.099 73.750 C 360.251 73.292,360.508 72.617,360.670 72.250 C 360.832 71.883,361.167 70.721,361.416 69.667 C 361.664 68.612,361.931 67.600,362.010 67.417 C 362.211 66.945,362.600 64.633,362.921 62.000 C 363.072 60.762,363.258 59.600,363.336 59.417 C 363.414 59.233,363.713 57.171,364.000 54.833 C 364.287 52.496,364.588 50.433,364.668 50.250 C 364.748 50.067,365.047 48.117,365.332 45.917 C 365.617 43.717,365.893 41.635,365.946 41.292 L 366.043 40.667 360.042 40.667 C 355.440 40.667,354.002 40.715,353.876 40.875 M371.743 41.792 C 371.679 42.410,371.571 42.992,371.503 43.083 C 371.435 43.175,371.138 45.200,370.843 47.583 C 370.548 49.967,370.242 52.067,370.162 52.250 C 370.082 52.433,369.746 54.721,369.415 57.333 C 369.084 59.946,368.749 62.233,368.671 62.417 C 368.593 62.600,368.446 63.313,368.345 64.000 C 368.060 65.927,367.466 68.907,367.348 69.000 C 367.290 69.046,367.029 69.983,366.768 71.083 C 366.507 72.183,366.191 73.308,366.066 73.583 C 365.639 74.519,364.998 76.898,365.135 77.035 C 365.210 77.110,367.777 77.151,370.839 77.127 L 376.407 77.083 376.593 76.709 C 376.696 76.504,376.894 76.204,377.035 76.043 C 377.290 75.749,378.167 73.673,378.167 73.360 C 378.167 73.269,378.226 73.169,378.299 73.139 C 378.432 73.083,379.205 70.584,379.424 69.500 C 379.489 69.179,379.597 68.879,379.664 68.833 C 379.813 68.732,380.422 65.474,380.677 63.417 C 380.779 62.592,380.926 61.767,381.003 61.583 C 381.080 61.400,381.378 59.337,381.666 57.000 C 381.953 54.663,382.247 52.637,382.320 52.500 C 382.392 52.362,382.702 50.299,383.008 47.916 C 383.315 45.533,383.619 43.546,383.684 43.499 C 383.750 43.453,383.857 42.797,383.923 42.041 L 384.043 40.667 377.951 40.667 L 371.860 40.667 371.743 41.792 M244.833 59.667 L 244.833 72.000 267.833 72.000 L 290.833 72.000 290.833 59.667 L 290.833 47.333 267.833 47.333 L 244.833 47.333 244.833 59.667 M279.000 59.667 L 279.000 65.500 267.833 65.500 L 256.667 65.500 256.667 59.667 L 256.667 53.833 267.833 53.833 L 279.000 53.833 279.000 59.667 M233.583 93.402 C 228.468 94.669,227.547 101.794,232.272 103.552 C 232.718 103.718,233.308 103.962,233.583 104.095 C 233.858 104.228,235.082 104.560,236.303 104.835 C 239.659 105.588,240.754 106.519,239.542 107.586 C 239.290 107.808,238.996 107.992,238.889 107.995 C 238.782 107.998,238.668 108.081,238.635 108.179 C 238.562 108.397,235.211 108.408,234.936 108.191 C 234.834 108.110,234.483 107.996,234.158 107.937 C 233.832 107.878,232.983 107.640,232.271 107.408 C 230.590 106.859,230.555 106.877,229.621 108.843 C 228.840 110.484,228.777 110.833,229.260 110.833 C 229.392 110.833,229.500 110.905,229.500 110.993 C 229.500 111.080,230.097 111.341,230.827 111.571 C 234.838 112.839,240.886 112.560,242.547 111.032 C 243.368 110.277,243.833 109.739,243.833 109.546 C 243.833 109.429,243.899 109.333,243.980 109.333 C 244.615 109.333,244.849 105.237,244.274 104.183 C 243.764 103.248,242.474 102.081,241.577 101.744 C 241.122 101.573,240.713 101.387,240.667 101.330 C 240.554 101.189,238.888 100.750,237.197 100.415 C 234.268 99.834,232.767 98.270,234.508 97.613 C 234.778 97.511,235.000 97.368,235.000 97.297 C 235.000 97.116,237.939 97.133,238.294 97.316 C 238.607 97.478,242.199 98.366,242.246 98.294 C 242.861 97.345,243.898 94.740,243.754 94.507 C 243.176 93.572,236.031 92.795,233.583 93.402 M253.110 93.507 C 251.804 93.889,251.000 94.269,251.000 94.504 C 251.000 94.594,250.886 94.667,250.747 94.667 C 250.432 94.667,248.333 96.743,248.333 97.054 C 248.333 97.179,248.188 97.414,248.009 97.575 C 247.576 97.967,247.010 99.673,246.885 100.964 C 246.830 101.540,246.720 102.050,246.642 102.099 C 246.457 102.213,246.457 103.454,246.642 103.568 C 246.721 103.617,246.831 104.099,246.888 104.641 C 246.989 105.610,247.679 107.787,247.947 107.983 C 248.023 108.038,248.305 108.409,248.575 108.807 C 249.070 109.535,250.424 110.833,250.690 110.833 C 250.769 110.833,250.974 110.974,251.146 111.146 C 252.784 112.784,260.571 112.613,262.420 110.899 C 262.657 110.679,262.919 110.500,263.002 110.500 C 263.261 110.500,264.833 108.861,264.833 108.591 C 264.833 108.332,264.695 108.195,262.917 106.685 C 261.730 105.678,261.619 105.662,260.934 106.409 C 259.206 108.296,254.944 108.498,253.304 106.770 C 252.799 106.238,252.061 105.132,251.928 104.708 L 251.811 104.333 258.681 104.333 L 265.551 104.333 265.445 102.375 C 265.202 97.880,263.306 94.824,260.017 93.625 C 258.605 93.110,254.692 93.043,253.110 93.507 M275.164 93.339 C 274.841 93.416,274.222 93.631,273.789 93.817 L 273.000 94.155 273.000 93.744 L 273.000 93.333 270.417 93.333 L 267.833 93.333 267.833 102.750 L 267.833 112.167 270.417 112.167 L 273.000 112.167 273.000 105.612 L 273.000 99.058 273.375 98.718 C 274.993 97.250,278.674 97.426,280.380 99.053 C 281.459 100.082,281.500 100.359,281.500 106.604 L 281.500 112.167 284.083 112.167 L 286.667 112.167 286.663 106.042 C 286.658 99.408,286.622 99.064,285.743 97.205 C 284.224 93.994,279.569 92.293,275.164 93.339 M293.373 93.425 C 288.142 94.833,287.345 101.384,292.143 103.529 C 292.752 103.802,293.367 104.085,293.509 104.160 C 293.652 104.234,294.327 104.424,295.009 104.582 C 295.692 104.740,296.737 104.984,297.333 105.124 C 299.533 105.642,300.463 106.805,299.340 107.635 C 299.069 107.836,298.775 108.000,298.687 108.000 C 298.600 108.000,298.501 108.080,298.469 108.177 C 298.392 108.408,295.002 108.402,294.771 108.171 C 294.677 108.077,294.466 108.000,294.302 108.000 C 294.138 108.000,293.302 107.775,292.443 107.500 C 291.585 107.225,290.769 107.000,290.631 107.000 C 290.362 107.000,289.583 108.349,289.010 109.806 L 288.660 110.696 288.997 110.784 C 289.182 110.833,289.333 110.935,289.333 111.012 C 289.333 111.203,291.747 111.952,293.036 112.161 C 295.812 112.611,300.121 112.288,301.634 111.516 C 305.750 109.417,305.283 102.664,300.947 101.576 C 300.701 101.514,300.500 101.405,300.500 101.333 C 300.500 101.200,299.220 100.865,297.015 100.422 C 295.332 100.083,293.853 99.387,293.724 98.873 C 293.584 98.316,293.911 97.695,294.411 97.570 C 294.643 97.512,294.833 97.397,294.833 97.315 C 294.833 97.118,297.757 97.123,298.127 97.322 C 298.286 97.407,299.092 97.629,299.917 97.816 C 300.742 98.003,301.585 98.205,301.792 98.264 C 302.064 98.343,302.167 98.303,302.167 98.117 C 302.167 97.976,302.229 97.836,302.304 97.806 C 302.525 97.716,303.704 94.695,303.590 94.510 C 302.997 93.551,295.761 92.782,293.373 93.425 M313.083 93.402 C 311.105 93.936,309.517 94.941,308.417 96.355 C 308.142 96.708,307.787 97.157,307.629 97.353 C 307.269 97.799,306.704 99.292,306.563 100.172 C 306.504 100.540,306.391 100.881,306.311 100.930 C 306.123 101.047,306.122 104.453,306.311 104.569 C 306.390 104.618,306.495 104.942,306.543 105.288 C 306.658 106.102,307.262 107.693,307.629 108.147 C 307.787 108.343,308.142 108.791,308.417 109.144 C 310.229 111.467,312.143 112.251,316.000 112.248 C 319.143 112.245,320.989 111.811,322.048 110.824 C 322.240 110.646,322.459 110.500,322.535 110.500 C 322.729 110.500,324.500 108.738,324.500 108.545 C 324.500 108.459,324.127 108.094,323.672 107.736 C 323.216 107.377,322.535 106.802,322.158 106.458 C 321.327 105.701,321.197 105.692,320.573 106.348 C 318.544 108.482,313.950 108.501,312.500 106.383 C 312.271 106.048,312.003 105.694,311.905 105.595 C 311.808 105.497,311.643 105.173,311.539 104.875 L 311.351 104.333 318.175 104.333 L 325.000 104.333 325.000 102.761 C 325.000 100.804,324.471 98.147,324.020 97.837 C 323.950 97.789,323.727 97.401,323.523 96.975 C 323.185 96.266,322.307 95.340,321.064 94.378 C 319.735 93.350,315.291 92.806,313.083 93.402 M258.417 97.639 C 259.321 98.121,260.418 99.534,260.542 100.374 L 260.609 100.833 256.226 100.833 C 251.235 100.833,251.608 100.996,252.656 99.274 C 253.848 97.315,256.434 96.580,258.417 97.639 M317.361 97.292 C 317.392 97.360,317.789 97.604,318.245 97.833 C 318.846 98.136,319.166 98.433,319.412 98.917 C 319.598 99.283,319.797 99.621,319.854 99.667 C 319.911 99.712,320.011 99.994,320.076 100.292 L 320.193 100.833 315.829 100.833 L 311.464 100.833 311.573 100.399 C 311.790 99.535,312.930 98.239,313.945 97.705 C 314.900 97.203,317.198 96.924,317.361 97.292 " stroke="none" fill="#040404" fill-rule="evenodd"></path><path id="path3" d="M161.898 7.792 C 161.987 7.945,161.829 8.001,161.302 8.005 L 160.583 8.011 161.083 8.445 C 162.766 9.909,163.399 10.434,163.642 10.570 C 163.793 10.655,164.479 11.208,165.167 11.798 C 166.384 12.845,166.729 13.139,169.333 15.353 C 170.021 15.937,170.808 16.622,171.083 16.874 C 171.358 17.126,171.635 17.332,171.697 17.333 C 171.760 17.333,172.472 17.904,173.280 18.602 C 174.089 19.299,175.111 20.181,175.552 20.560 C 175.993 20.940,176.607 21.494,176.916 21.792 C 177.225 22.090,177.550 22.333,177.638 22.333 C 177.727 22.333,178.029 22.596,178.311 22.917 C 178.593 23.238,178.872 23.500,178.931 23.500 C 179.046 23.500,179.972 24.248,180.667 24.902 C 180.896 25.118,181.290 25.424,181.542 25.583 C 181.794 25.742,182.000 25.962,182.000 26.073 C 182.000 26.184,182.425 26.644,182.944 27.095 C 183.464 27.547,184.159 28.179,184.488 28.500 C 184.818 28.821,185.351 29.280,185.672 29.521 C 185.994 29.762,186.842 30.530,187.557 31.229 C 188.272 31.928,188.926 32.500,189.012 32.500 C 189.097 32.500,189.167 32.585,189.167 32.689 C 189.167 32.793,189.335 33.048,189.542 33.255 C 190.646 34.362,191.472 35.292,191.648 35.625 C 191.756 35.831,191.978 36.000,192.141 36.000 C 192.304 36.000,192.608 36.231,192.816 36.512 C 193.040 36.815,193.291 36.988,193.431 36.934 C 193.561 36.885,193.667 36.914,193.667 36.999 C 193.667 37.185,194.947 37.553,195.153 37.425 C 195.233 37.376,195.341 37.447,195.394 37.584 C 195.492 37.839,195.911 37.848,196.302 37.604 C 196.437 37.520,196.645 37.580,196.845 37.760 C 197.023 37.922,197.218 38.005,197.277 37.945 C 197.337 37.885,197.481 37.915,197.597 38.011 C 197.745 38.134,197.908 38.123,198.149 37.972 C 198.420 37.803,198.535 37.801,198.696 37.963 C 198.972 38.239,199.167 38.220,199.167 37.917 C 199.167 37.624,199.443 37.579,199.536 37.857 C 199.582 37.995,199.713 37.985,200.008 37.822 C 200.233 37.698,200.510 37.616,200.625 37.639 C 200.740 37.662,200.833 37.598,200.833 37.495 C 200.833 37.391,200.948 37.424,201.095 37.571 C 201.397 37.873,201.667 37.913,201.667 37.657 C 201.667 37.560,201.723 37.515,201.792 37.558 C 201.860 37.600,201.917 37.464,201.917 37.255 C 201.917 37.020,201.837 36.906,201.708 36.956 C 201.458 37.052,201.435 36.811,201.668 36.535 C 201.760 36.425,201.787 36.371,201.728 36.414 C 201.591 36.512,201.013 35.459,201.112 35.292 C 201.153 35.223,201.099 35.167,200.992 35.167 C 200.885 35.167,200.841 35.054,200.894 34.917 C 200.946 34.779,200.912 34.667,200.818 34.667 C 200.724 34.667,200.693 34.592,200.750 34.500 C 200.807 34.408,200.769 34.333,200.667 34.333 C 200.564 34.333,200.527 34.258,200.583 34.167 C 200.640 34.075,200.613 34.000,200.523 34.000 C 200.379 34.000,199.943 32.989,199.924 32.612 C 199.920 32.535,199.771 32.367,199.593 32.237 C 199.415 32.106,199.363 32.000,199.478 32.000 C 199.593 32.000,199.639 31.924,199.582 31.831 C 199.524 31.737,199.419 31.697,199.347 31.741 C 199.276 31.785,199.038 31.430,198.817 30.952 C 198.597 30.474,198.360 30.058,198.292 30.028 C 198.223 29.997,198.167 29.864,198.167 29.731 C 198.167 29.598,198.054 29.446,197.917 29.394 C 197.779 29.341,197.667 29.193,197.667 29.066 C 197.667 28.938,197.600 28.833,197.519 28.833 C 197.438 28.833,197.325 28.702,197.267 28.542 C 197.081 28.028,196.713 27.479,196.563 27.489 C 196.482 27.495,196.413 27.444,196.409 27.375 C 196.397 27.183,195.333 25.580,195.333 25.754 C 195.333 25.839,195.204 25.722,195.045 25.495 C 194.585 24.837,194.124 24.293,193.530 23.710 C 193.225 23.411,193.012 23.167,193.055 23.167 C 193.183 23.167,191.100 21.106,190.709 20.845 C 190.512 20.713,190.387 20.548,190.430 20.478 C 190.474 20.408,190.343 20.261,190.140 20.152 C 189.937 20.044,189.621 19.815,189.437 19.644 C 189.254 19.473,189.043 19.333,188.969 19.333 C 188.894 19.333,188.833 19.221,188.833 19.083 C 188.833 18.946,188.753 18.833,188.655 18.833 C 188.557 18.833,188.378 18.740,188.259 18.625 C 188.139 18.510,187.871 18.304,187.664 18.167 C 187.457 18.029,187.120 17.755,186.916 17.556 C 186.712 17.358,186.232 17.037,185.850 16.842 C 185.468 16.647,185.195 16.422,185.245 16.342 C 185.294 16.262,185.015 16.035,184.625 15.837 C 184.236 15.639,183.437 15.147,182.851 14.744 C 182.265 14.340,181.730 14.044,181.662 14.086 C 181.593 14.129,181.442 14.048,181.325 13.907 C 181.208 13.766,180.619 13.423,180.015 13.145 C 179.411 12.868,178.785 12.571,178.625 12.487 C 178.465 12.402,178.202 12.264,178.042 12.180 C 177.053 11.660,176.333 11.354,176.333 11.453 C 176.333 11.515,176.243 11.477,176.133 11.367 C 176.023 11.257,175.785 11.167,175.605 11.167 C 175.424 11.167,175.158 11.066,175.013 10.942 C 174.868 10.819,174.262 10.585,173.667 10.424 C 173.071 10.262,172.512 10.087,172.424 10.034 C 172.336 9.981,172.084 9.918,171.864 9.895 C 171.644 9.871,171.309 9.717,171.120 9.551 C 170.931 9.385,170.831 9.344,170.898 9.458 C 171.068 9.749,170.861 9.718,170.549 9.406 C 170.406 9.263,170.093 9.167,169.853 9.192 C 169.613 9.217,169.319 9.177,169.199 9.104 C 169.080 9.030,168.667 8.934,168.283 8.890 C 167.898 8.847,167.518 8.747,167.438 8.669 C 167.358 8.590,167.189 8.566,167.063 8.614 C 166.937 8.663,166.702 8.647,166.542 8.580 C 166.245 8.455,165.972 8.423,164.698 8.366 C 164.291 8.347,164.023 8.264,164.079 8.174 C 164.140 8.076,163.854 8.053,163.336 8.114 C 162.654 8.195,162.427 8.154,162.135 7.899 C 161.938 7.725,161.831 7.677,161.898 7.792 M34.876 25.000 C 30.230 26.636,25.282 30.649,22.679 34.892 C 22.094 35.845,22.553 38.962,23.218 38.552 C 23.304 38.498,23.296 38.413,23.200 38.354 C 23.105 38.295,23.399 37.846,23.869 37.333 C 24.331 36.829,24.611 36.567,24.493 36.750 C 24.374 36.933,24.552 36.788,24.889 36.428 C 25.225 36.068,25.500 35.716,25.500 35.648 C 25.500 35.579,25.646 35.476,25.825 35.419 C 26.004 35.363,26.310 35.057,26.506 34.740 C 26.702 34.424,26.918 34.199,26.986 34.241 C 27.054 34.283,27.362 34.087,27.670 33.806 C 27.978 33.524,28.441 33.220,28.698 33.131 C 28.956 33.041,29.130 32.908,29.085 32.835 C 28.961 32.636,29.812 32.135,30.046 32.270 C 30.158 32.334,30.196 32.327,30.131 32.255 C 29.876 31.972,32.158 30.705,32.519 30.929 C 32.605 30.981,32.654 30.929,32.629 30.812 C 32.604 30.694,32.658 30.592,32.750 30.585 C 32.842 30.578,33.087 30.477,33.295 30.361 C 33.503 30.246,33.747 30.197,33.837 30.252 C 33.927 30.308,34.000 30.274,34.000 30.177 C 34.000 30.079,34.094 29.997,34.208 29.994 C 34.323 29.991,34.717 29.844,35.083 29.667 C 35.450 29.490,35.927 29.342,36.143 29.339 C 36.465 29.334,36.520 29.266,36.446 28.958 C 36.397 28.752,36.232 27.721,36.080 26.667 C 35.750 24.388,35.925 24.630,34.876 25.000 M23.830 69.051 C 23.144 69.445,21.871 70.170,21.000 70.660 C 20.129 71.151,19.313 71.634,19.186 71.735 C 19.059 71.835,18.484 72.179,17.909 72.500 C 17.333 72.821,16.332 73.380,15.684 73.742 L 14.505 74.401 14.848 74.766 C 17.584 77.678,24.637 80.538,30.198 80.989 C 34.735 81.358,35.943 81.096,38.785 79.132 C 39.354 78.739,40.592 77.897,41.535 77.261 C 42.478 76.625,43.275 76.044,43.306 75.969 C 43.336 75.894,43.453 75.833,43.566 75.833 C 43.678 75.833,43.924 75.690,44.112 75.515 C 44.300 75.340,44.781 75.030,45.183 74.825 C 46.247 74.282,45.801 74.190,41.846 74.132 C 39.461 74.097,38.457 74.024,38.308 73.875 C 38.060 73.627,37.770 73.596,37.917 73.833 C 37.973 73.925,37.940 74.000,37.843 74.000 C 37.746 74.000,37.667 73.934,37.667 73.854 C 37.667 73.774,36.935 73.590,36.042 73.446 C 33.715 73.069,32.767 72.817,32.500 72.505 C 32.454 72.451,32.079 72.269,31.667 72.100 C 31.254 71.932,30.729 71.710,30.500 71.607 C 29.975 71.373,29.101 70.790,29.028 70.625 C 28.997 70.556,28.832 70.500,28.661 70.500 C 28.490 70.500,28.067 70.219,27.721 69.875 C 27.376 69.531,27.194 69.381,27.317 69.542 C 27.440 69.702,27.473 69.833,27.391 69.833 C 27.159 69.833,26.680 69.210,26.805 69.071 C 26.867 69.002,26.828 68.997,26.720 69.059 C 26.612 69.121,26.245 68.983,25.905 68.753 C 25.133 68.229,25.300 68.205,23.830 69.051 M2.746 74.339 C 2.692 74.428,2.706 74.594,2.777 74.708 C 2.928 74.950,3.040 75.430,3.065 75.944 C 3.075 76.143,3.132 76.293,3.192 76.278 C 3.251 76.262,3.322 76.325,3.348 76.417 C 3.375 76.508,3.492 76.768,3.609 76.994 C 3.776 77.314,3.778 77.432,3.619 77.533 C 3.476 77.624,3.495 77.662,3.686 77.664 C 3.938 77.667,4.556 78.936,4.556 79.453 C 4.556 79.571,4.622 79.667,4.704 79.667 C 4.786 79.667,4.807 79.742,4.750 79.833 C 4.693 79.925,4.718 80.000,4.805 80.000 C 4.893 80.000,5.012 80.191,5.070 80.423 C 5.129 80.656,5.249 80.802,5.338 80.747 C 5.427 80.692,5.500 80.746,5.500 80.868 C 5.500 80.989,5.650 81.368,5.834 81.711 C 6.017 82.053,6.159 82.377,6.150 82.431 C 6.140 82.486,6.307 82.729,6.520 82.973 C 6.733 83.217,6.919 83.494,6.933 83.588 C 6.965 83.797,7.694 84.902,8.248 85.583 C 8.472 85.858,8.669 86.158,8.686 86.250 C 8.703 86.342,8.968 86.668,9.275 86.975 C 9.582 87.282,9.833 87.605,9.833 87.693 C 9.833 88.011,13.274 91.604,15.000 93.089 C 15.688 93.680,16.475 94.358,16.750 94.595 C 17.556 95.290,19.711 96.813,20.208 97.040 C 20.460 97.154,20.667 97.304,20.667 97.372 C 20.667 97.440,21.135 97.731,21.708 98.019 C 22.281 98.307,22.787 98.598,22.833 98.666 C 22.970 98.867,26.675 100.614,27.667 100.944 C 28.171 101.112,28.624 101.304,28.673 101.370 C 28.791 101.527,29.971 101.940,31.239 102.268 C 31.795 102.412,32.333 102.598,32.434 102.682 C 32.804 102.987,37.185 103.567,41.250 103.849 C 44.395 104.066,52.561 103.959,52.885 103.696 C 52.994 103.608,53.233 103.506,53.417 103.470 C 53.677 103.418,53.595 103.334,53.042 103.086 C 52.652 102.912,52.333 102.721,52.333 102.663 C 52.333 102.605,51.827 102.304,51.208 101.994 C 50.590 101.685,49.976 101.326,49.844 101.197 C 49.712 101.067,49.295 100.829,48.917 100.667 C 48.538 100.505,48.121 100.268,47.990 100.141 C 47.858 100.014,47.245 99.663,46.628 99.362 C 46.011 99.062,45.405 98.714,45.282 98.591 C 45.159 98.468,44.576 98.125,43.987 97.829 C 43.398 97.533,42.879 97.235,42.833 97.167 C 42.788 97.099,42.262 96.799,41.667 96.500 C 41.071 96.201,40.544 95.896,40.497 95.822 C 40.449 95.748,39.949 95.459,39.386 95.180 C 38.824 94.901,38.338 94.615,38.306 94.544 C 38.275 94.474,37.748 94.172,37.135 93.873 C 36.521 93.573,35.921 93.235,35.801 93.121 C 35.681 93.006,35.077 92.659,34.458 92.348 C 33.840 92.038,33.333 91.737,33.333 91.681 C 33.333 91.625,32.808 91.324,32.167 91.012 C 31.525 90.700,31.000 90.397,31.000 90.338 C 31.000 90.279,30.475 89.977,29.833 89.667 C 29.192 89.356,28.667 89.056,28.667 89.000 C 28.667 88.944,28.142 88.644,27.500 88.333 C 26.858 88.023,26.333 87.717,26.333 87.654 C 26.333 87.591,25.752 87.254,25.042 86.905 C 24.331 86.556,23.726 86.212,23.696 86.140 C 23.666 86.068,23.141 85.764,22.529 85.466 C 21.917 85.167,21.391 84.864,21.360 84.792 C 21.329 84.720,20.843 84.433,20.280 84.153 C 19.717 83.874,19.218 83.592,19.170 83.527 C 19.122 83.462,18.596 83.154,18.000 82.843 C 17.404 82.532,16.879 82.226,16.833 82.162 C 16.787 82.099,16.188 81.758,15.500 81.406 C 14.813 81.053,14.164 80.680,14.058 80.577 C 13.952 80.474,13.427 80.171,12.891 79.904 C 12.355 79.636,11.809 79.315,11.677 79.190 C 11.545 79.064,11.128 78.829,10.750 78.667 C 10.372 78.505,9.955 78.269,9.823 78.144 C 9.691 78.018,9.145 77.697,8.609 77.430 C 8.073 77.163,7.544 76.853,7.433 76.743 C 7.323 76.632,6.734 76.302,6.126 76.008 C 5.517 75.715,4.996 75.418,4.968 75.349 C 4.866 75.099,2.845 74.180,2.746 74.339 M335.064 91.917 C 335.064 93.017,335.091 93.445,335.124 92.868 C 335.156 92.292,335.156 91.392,335.123 90.868 C 335.090 90.345,335.063 90.817,335.064 91.917 M335.069 101.083 C 335.069 102.733,335.094 103.386,335.124 102.533 C 335.155 101.681,335.154 100.331,335.124 99.533 C 335.093 98.736,335.069 99.433,335.069 101.083 " stroke="none" fill="#8f0409" fill-rule="evenodd"></path><path id="path4" d="M52.059 26.046 C 52.072 27.651,52.134 28.934,52.197 28.896 C 52.259 28.859,52.357 28.904,52.415 28.997 C 52.473 29.090,52.803 29.167,53.149 29.167 C 53.495 29.167,53.826 29.215,53.884 29.273 C 53.943 29.332,54.347 29.411,54.782 29.448 C 55.218 29.485,55.613 29.569,55.662 29.633 C 55.710 29.697,55.900 29.758,56.083 29.769 C 56.267 29.779,56.642 29.817,56.917 29.852 C 57.486 29.926,57.437 30.370,57.319 26.241 L 57.262 24.232 55.339 23.772 C 54.282 23.519,53.106 23.271,52.725 23.220 L 52.034 23.127 52.059 26.046 M51.089 28.825 C 51.035 28.912,51.151 28.952,51.351 28.913 C 51.849 28.817,51.963 28.667,51.538 28.667 C 51.344 28.667,51.142 28.738,51.089 28.825 M163.667 30.003 C 160.414 30.342,158.646 30.925,158.175 31.814 C 157.977 32.187,157.988 32.206,158.357 32.114 C 173.639 28.295,189.276 35.242,197.116 49.333 C 198.262 51.394,198.247 50.934,197.089 48.538 C 191.132 36.213,177.359 28.574,163.667 30.003 M22.130 35.542 C 19.096 40.252,17.524 46.553,18.002 52.083 C 18.273 55.226,18.642 56.192,18.538 53.487 C 18.456 51.365,18.731 48.047,19.012 47.758 C 19.097 47.671,19.167 47.473,19.167 47.319 C 19.167 46.219,20.838 41.932,21.869 40.387 C 22.124 40.003,22.333 39.640,22.333 39.579 C 22.333 39.518,22.488 39.250,22.678 38.984 C 22.868 38.718,22.955 38.500,22.872 38.500 C 22.686 38.500,22.262 35.761,22.394 35.416 C 22.534 35.051,22.407 35.112,22.130 35.542 M202.508 41.816 C 202.283 42.513,201.964 43.262,201.799 43.481 C 201.635 43.699,201.500 44.093,201.500 44.356 C 201.500 44.618,201.416 44.833,201.314 44.833 C 201.210 44.833,201.166 44.980,201.215 45.167 C 201.263 45.350,201.235 45.500,201.153 45.500 C 201.071 45.500,200.957 45.795,200.899 46.156 C 200.841 46.517,200.698 46.850,200.580 46.895 C 200.462 46.940,200.281 47.371,200.178 47.852 C 200.075 48.333,199.907 48.828,199.805 48.951 C 199.703 49.074,199.661 49.217,199.713 49.268 C 199.814 49.369,199.513 50.363,199.340 50.500 C 198.740 50.973,198.723 52.499,199.297 54.448 C 200.640 59.009,201.164 64.368,200.678 68.583 C 200.512 70.030,199.731 74.407,199.519 75.083 L 199.362 75.583 199.348 75.042 C 199.340 74.744,199.274 74.500,199.201 74.500 C 199.036 74.500,198.590 73.021,198.634 72.615 C 198.652 72.450,198.593 72.359,198.504 72.414 C 198.415 72.469,198.256 72.174,198.151 71.757 C 198.046 71.341,197.903 71.000,197.833 71.000 C 197.702 71.000,197.655 70.871,197.246 69.380 C 196.935 68.249,196.348 67.527,196.059 67.922 C 195.879 68.168,195.840 68.158,195.661 67.823 C 195.552 67.619,195.246 67.241,194.981 66.982 C 194.717 66.723,194.500 66.434,194.500 66.339 C 194.500 66.244,194.425 66.167,194.333 66.167 C 194.242 66.167,194.167 66.053,194.167 65.913 C 194.167 65.774,193.979 65.574,193.750 65.470 C 193.521 65.365,193.333 65.217,193.333 65.140 C 193.333 65.063,193.227 65.000,193.097 65.000 C 192.967 65.000,192.836 64.944,192.806 64.875 C 192.611 64.438,190.597 63.380,189.682 63.233 C 189.307 63.173,188.999 63.040,188.997 62.937 C 188.996 62.834,188.915 62.862,188.818 63.000 C 188.685 63.188,188.620 63.198,188.557 63.042 C 188.510 62.927,188.272 62.833,188.026 62.833 C 187.771 62.833,187.497 62.700,187.385 62.521 C 187.175 62.184,186.363 62.213,186.128 62.567 C 186.043 62.694,186.004 62.686,186.003 62.542 C 186.001 62.400,185.702 62.333,185.072 62.333 C 184.562 62.333,183.991 62.251,183.802 62.150 C 183.591 62.037,183.500 62.032,183.565 62.137 C 183.622 62.230,183.569 62.407,183.446 62.530 C 183.324 62.653,183.254 62.846,183.292 62.960 C 183.330 63.074,183.234 63.167,183.078 63.167 C 182.850 63.167,182.815 63.270,182.897 63.708 C 183.165 65.141,183.217 70.649,182.965 71.034 C 182.828 71.245,182.661 71.781,182.595 72.226 C 182.435 73.298,181.866 75.457,181.578 76.083 C 181.452 76.358,181.189 76.996,180.995 77.500 C 180.800 78.004,180.429 78.792,180.170 79.250 C 179.911 79.708,179.547 80.358,179.361 80.693 C 179.175 81.029,178.909 81.441,178.771 81.610 C 178.632 81.779,178.184 82.367,177.775 82.917 C 176.416 84.745,173.645 87.377,172.072 88.334 C 171.711 88.553,171.379 88.784,171.333 88.847 C 171.211 89.015,169.248 90.102,168.000 90.693 C 167.404 90.975,166.862 91.290,166.794 91.394 C 166.727 91.498,166.671 91.518,166.669 91.438 C 166.668 91.358,166.573 91.370,166.458 91.465 C 166.344 91.561,166.192 91.642,166.121 91.646 C 166.051 91.651,165.863 91.735,165.705 91.835 C 165.352 92.056,165.950 91.916,166.750 91.589 C 167.236 91.391,167.250 91.398,167.250 91.859 C 167.250 92.120,167.194 92.333,167.125 92.333 C 167.056 92.333,167.000 92.520,167.000 92.748 C 167.000 93.826,166.604 94.692,165.961 95.020 C 165.616 95.196,165.333 95.381,165.333 95.432 C 165.333 95.575,167.783 94.197,169.167 93.276 C 173.943 90.094,177.941 85.591,180.492 80.516 C 181.792 77.930,182.267 76.428,183.011 72.547 C 183.197 71.579,183.232 71.523,183.550 71.693 C 183.822 71.839,183.933 71.817,184.104 71.583 C 184.261 71.368,184.440 71.321,184.784 71.404 C 185.405 71.554,185.602 71.590,186.592 71.733 C 187.055 71.801,187.730 72.035,188.092 72.255 C 188.454 72.474,189.219 72.898,189.792 73.196 C 190.365 73.494,190.875 73.868,190.925 74.027 C 190.976 74.186,191.170 74.365,191.357 74.424 C 191.543 74.483,191.799 74.768,191.925 75.058 C 192.051 75.347,192.157 75.490,192.160 75.375 C 192.167 75.149,192.667 75.078,192.667 75.303 C 192.667 75.378,192.892 75.692,193.167 76.000 C 193.442 76.308,193.667 76.734,193.667 76.947 C 193.667 77.179,193.766 77.333,193.917 77.333 C 194.054 77.333,194.167 77.446,194.167 77.583 C 194.167 77.721,194.242 77.833,194.333 77.833 C 194.425 77.833,194.500 77.978,194.500 78.155 C 194.500 78.332,194.612 78.589,194.750 78.726 C 194.887 78.864,195.000 79.086,195.000 79.220 C 195.000 79.355,195.112 79.508,195.250 79.560 C 195.387 79.613,195.500 79.799,195.500 79.974 C 195.500 80.149,195.612 80.386,195.750 80.500 C 195.887 80.614,196.000 80.877,196.000 81.083 C 196.000 81.290,196.109 81.721,196.243 82.041 C 196.528 82.722,196.100 83.781,194.521 86.300 C 193.631 87.720,193.809 87.863,194.833 86.551 C 195.972 85.093,196.846 83.907,197.329 83.167 C 197.598 82.754,197.952 82.238,198.117 82.019 C 198.563 81.428,199.245 80.238,199.944 78.833 C 200.286 78.146,200.616 77.546,200.677 77.500 C 200.805 77.405,201.666 75.553,201.668 75.370 C 201.668 75.304,201.788 75.025,201.933 74.750 C 202.079 74.475,202.421 73.612,202.693 72.833 C 202.965 72.054,203.291 71.189,203.418 70.910 C 203.998 69.637,205.192 64.270,205.490 61.597 C 206.044 56.629,205.656 48.093,204.798 46.375 C 204.695 46.169,204.660 45.951,204.721 45.891 C 204.781 45.830,204.766 45.699,204.687 45.599 C 204.608 45.499,204.412 44.817,204.252 44.083 C 204.092 43.350,203.910 42.712,203.847 42.667 C 203.785 42.621,203.635 42.246,203.515 41.835 C 203.099 40.413,202.961 40.410,202.508 41.816 M139.269 42.964 C 135.751 45.782,130.640 50.689,126.879 54.857 C 123.481 58.625,115.366 67.105,108.615 73.946 C 102.523 80.119,101.563 81.166,103.542 79.478 C 104.946 78.280,107.302 76.239,107.917 75.688 C 108.192 75.441,109.167 74.569,110.083 73.750 C 111.000 72.930,112.205 71.845,112.761 71.338 C 117.075 67.406,116.840 67.625,121.508 63.167 C 122.804 61.929,125.620 59.192,127.767 57.083 C 132.154 52.775,132.609 52.346,133.667 51.525 C 134.079 51.205,134.492 50.856,134.583 50.749 C 134.807 50.490,137.480 48.431,138.863 47.454 C 140.589 46.233,140.500 46.413,140.500 44.155 C 140.500 41.875,140.558 41.931,139.269 42.964 M82.878 52.884 C 80.925 54.704,79.037 56.351,77.396 57.667 C 76.767 58.171,76.140 58.680,76.001 58.799 C 75.550 59.186,73.941 60.405,73.209 60.917 C 70.326 62.929,68.977 63.833,68.857 63.833 C 68.781 63.833,68.585 63.980,68.422 64.160 C 68.260 64.340,67.841 64.636,67.492 64.818 C 66.526 65.322,66.092 65.573,66.000 65.683 C 65.954 65.738,65.542 65.990,65.083 66.242 C 64.625 66.495,64.146 66.787,64.020 66.892 C 63.713 67.146,61.883 68.152,60.333 68.918 C 59.646 69.258,58.971 69.625,58.833 69.734 C 58.696 69.843,57.983 70.187,57.250 70.498 C 56.517 70.810,55.875 71.124,55.824 71.198 C 55.773 71.271,55.173 71.526,54.491 71.764 C 53.808 72.002,53.160 72.271,53.049 72.363 C 52.938 72.454,52.770 72.480,52.674 72.421 C 52.578 72.362,52.500 72.385,52.500 72.472 C 52.500 72.559,51.956 72.762,51.292 72.921 C 50.627 73.081,50.007 73.272,49.913 73.345 C 49.819 73.418,49.219 73.573,48.580 73.690 C 47.940 73.806,47.336 73.980,47.238 74.076 C 47.140 74.172,46.784 74.438,46.447 74.667 C 46.111 74.896,45.833 75.158,45.831 75.250 C 45.828 75.342,45.527 75.637,45.163 75.907 C 44.798 76.177,44.500 76.495,44.500 76.615 C 44.500 76.735,44.434 76.815,44.353 76.792 C 44.273 76.769,44.026 76.938,43.806 77.167 C 43.585 77.396,42.971 77.958,42.440 78.417 C 41.910 78.875,41.238 79.480,40.947 79.761 C 40.292 80.393,38.773 80.743,35.500 81.017 C 24.838 81.908,15.375 77.538,9.016 68.786 C 7.905 67.256,7.825 67.192,7.511 67.571 C 6.900 68.306,10.858 73.355,14.071 75.939 C 18.706 79.668,24.180 81.840,30.204 82.342 C 38.268 83.013,50.625 79.939,54.091 76.399 C 54.554 75.927,55.304 75.351,55.758 75.120 C 60.967 72.469,74.358 62.022,80.477 55.834 C 83.779 52.495,85.294 50.633,82.878 52.884 M163.125 92.615 C 162.965 92.657,162.833 92.765,162.833 92.855 C 162.833 92.946,162.766 92.978,162.684 92.927 C 162.602 92.877,162.321 92.947,162.059 93.083 C 161.489 93.381,161.608 93.395,162.593 93.147 C 163.000 93.044,163.333 92.897,163.333 92.819 C 163.333 92.741,163.446 92.720,163.583 92.773 C 163.721 92.826,163.833 92.786,163.833 92.684 C 163.833 92.497,163.647 92.478,163.125 92.615 M160.083 93.603 C 159.625 93.735,158.803 93.920,158.256 94.014 C 157.709 94.108,157.168 94.263,157.054 94.358 C 156.940 94.453,156.602 94.481,156.298 94.421 C 155.946 94.352,155.829 94.368,155.971 94.466 C 156.151 94.590,156.143 94.667,155.929 94.881 C 155.785 95.025,155.664 95.317,155.660 95.530 C 155.656 95.743,155.557 96.468,155.439 97.142 L 155.224 98.367 155.820 98.275 C 156.148 98.224,156.814 98.131,157.299 98.069 C 158.351 97.933,158.492 97.700,158.827 95.546 C 159.039 94.175,159.040 94.174,159.603 94.069 C 159.913 94.010,160.167 93.899,160.167 93.820 C 160.167 93.741,160.280 93.721,160.419 93.774 C 160.557 93.827,160.764 93.794,160.877 93.699 C 160.991 93.605,161.146 93.528,161.222 93.528 C 161.299 93.528,161.405 93.484,161.458 93.431 C 161.622 93.267,160.962 93.350,160.083 93.603 " stroke="none" fill="#d76869" fill-rule="evenodd"></path></g></svg>