<svg xmlns="http://www.w3.org/2000/svg" viewBox="0 0 290.5 55.05"><title>Tencent logo</title><polygon points="266.95 17.11 254.54 17.11 259.42 24.11 265.71 24.11 260.42 54.24 271.45 54.24 276.75 24.11 290.5 24.11 268.79 6.64 266.95 17.11" style="fill:#0052d9"/><polygon points="51.46 0 1.37 0 0 7.89 19.45 7.89 11.3 54.24 22.33 54.24 30.48 7.89 50.09 7.89 51.46 0" style="fill:#0052d9"/><path d="M426.36,500.75c-14,0-23,8.82-24.77,19.07-2,11.38,5,19.71,19.16,19.71,6.32,0,12.23-1.19,17-3.86l1.49-8.49a28.29,28.29,0,0,1-15.72,5.24c-7.05,0-12.66-2.94-11.77-9.67h29.14A18.46,18.46,0,0,0,442,518.8c1.41-8.13-1.47-18.06-15.63-18.06m5.72,15.46H412.9c1.15-3.8,4.88-9,11.66-9,7.38,0,8.16,5.61,7.52,9" transform="translate(-366.75 -484.48)" style="fill:#0052d9"/><path d="M475.06,500.75c-6.88,0-12,2.85-14.47,5.74h-.26l-9.71-5.74c-.36,3.22-.83,7.59-1.58,11.88l-4.53,26.09h11l3.83-21.85a8.94,8.94,0,0,1,1-3,11.09,11.09,0,0,1,9.48-5.51c6,0,7.65,4.06,6.73,9.39l-3.69,21h11l3.88-22.06c2-11.74-5.18-15.91-12.78-15.91" transform="translate(-366.75 -484.48)" style="fill:#0052d9"/><path d="M607.32,500.75c-6.89,0-12,2.85-14.47,5.74h-.26l-9.71-5.74c-.36,3.22-.84,7.59-1.58,11.88l-4.53,26.09h11l3.84-21.85a8.94,8.94,0,0,1,1-3,11.1,11.1,0,0,1,9.48-5.51c6,0,7.66,4.06,6.74,9.39l-3.69,21h11l3.88-22.06c2-11.74-5.18-15.91-12.77-15.91" transform="translate(-366.75 -484.48)" style="fill:#0052d9"/><path d="M558.63,500.75c-14,0-23,8.82-24.76,19.07-2,11.38,5,19.71,19.16,19.71,6.32,0,12.23-1.19,17-3.86l1.49-8.49a28.29,28.29,0,0,1-15.73,5.24c-7,0-12.65-2.94-11.77-9.67h29.14a19.14,19.14,0,0,0,1.08-3.95c1.4-8.13-1.48-18.06-15.64-18.06m5.71,15.46H545.17c1.15-3.8,4.88-9,11.66-9,7.38,0,8.16,5.61,7.52,9" transform="translate(-366.75 -484.48)" style="fill:#0052d9"/><path d="M492.46,519.65c-2,11.53,6.07,19.87,19.73,19.87A49.81,49.81,0,0,0,526.57,537l1.78-9.92c-3.83,4.12-9,5-12.71,5-7.5,0-13.18-4.37-11.86-12,1.15-6.81,7.59-12,16-12,3.42,0,8.07,1.15,11,5l1.71-10.1a31.25,31.25,0,0,0-11.78-2.21c-15.33,0-26.3,7.77-28.23,18.88" transform="translate(-366.75 -484.48)" style="fill:#0052d9"/></svg>