<?xml version="1.0" standalone="no"?>
<!DOCTYPE svg PUBLIC "-//W3C//DTD SVG 20010904//EN"
 "http://www.w3.org/TR/2001/REC-SVG-20010904/DTD/svg10.dtd">
<svg version="1.0" xmlns="http://www.w3.org/2000/svg"
 width="390.000000pt" height="62.000000pt" viewBox="0 0 390.000000 62.000000"
 preserveAspectRatio="xMidYMid meet">

<g transform="translate(0.000000,62.000000) scale(0.100000,-0.100000)"
fill="#000000" stroke="none">
<path d="M275 599 c-211 -74 -309 -253 -221 -404 71 -121 225 -195 406 -195
152 0 283 51 366 143 133 148 75 336 -134 435 -76 37 -79 37 -217 40 -121 2
-148 -1 -200 -19z m296 1 c140 -27 271 -125 299 -224 53 -190 -142 -361 -410
-360 -270 1 -463 170 -410 359 14 51 74 125 129 159 38 24 138 63 181 69 51 8
159 7 211 -3z"/>
<path d="M350 565 c0 -21 5 -25 32 -25 29 0 30 1 15 18 -10 10 -14 22 -10 25
3 4 -3 7 -15 7 -17 0 -22 -6 -22 -25z"/>
<path d="M522 578 c-7 -7 -12 -18 -12 -25 0 -11 5 -11 20 -3 17 9 19 8 13 -7
-5 -17 -5 -17 12 -1 19 18 14 48 -8 48 -7 0 -18 -5 -25 -12z"/>
<path d="M206 510 c-18 -18 -15 -40 5 -40 6 0 17 6 24 14 11 11 11 17 2 29
-11 13 -14 13 -31 -3z"/>
<path d="M367 520 c-131 -33 -214 -123 -205 -220 6 -56 34 -100 92 -142 39
-28 41 -29 44 -9 3 20 9 21 135 21 108 0 137 3 157 17 22 16 23 16 17 -1 -4
-10 -7 -19 -7 -22 0 -2 -13 -10 -30 -19 -21 -11 -60 -15 -142 -15 -89 0 -110
-3 -100 -13 9 -8 49 -12 125 -12 96 0 119 3 162 23 163 75 194 237 63 332 -45
33 -68 38 -68 15 0 -12 -20 -15 -118 -15 -95 0 -125 -4 -154 -18 l-36 -19 10
23 c19 40 65 54 185 55 84 0 102 3 83 11 -35 14 -168 19 -213 8z m243 -100 c0
-19 -7 -20 -99 -20 -71 0 -102 -4 -110 -14 -18 -21 11 -41 39 -26 17 9 26 8
46 -5 13 -8 24 -22 24 -29 0 -7 12 -16 28 -19 42 -9 64 -30 64 -62 0 -48 -22
-55 -169 -55 -126 0 -133 1 -133 20 0 19 7 20 111 20 100 0 110 2 107 18 -2
11 -12 16 -28 15 -44 -4 -71 7 -80 32 -6 17 -17 25 -33 25 -28 0 -67 34 -67
58 1 49 36 61 178 62 115 0 122 -1 122 -20z"/>
<path d="M682 518 c-5 -7 -6 -22 -3 -32 7 -19 8 -19 30 3 22 22 21 41 -3 41
-8 0 -18 -6 -24 -12z"/>
<path d="M790 400 c-12 -8 -12 -10 -1 -10 11 0 11 -3 1 -15 -10 -12 -10 -19
-2 -27 9 -9 12 -9 12 0 0 7 7 12 15 12 9 0 15 9 15 25 0 26 -14 32 -40 15z"/>
<path d="M90 390 c0 -21 2 -25 12 -22 5 1 7 -2 4 -7 -4 -5 -1 -13 5 -17 6 -3
15 0 20 7 10 16 12 46 3 36 -4 -3 -15 -2 -25 4 -13 6 -19 6 -19 -1z"/>
<path d="M792 231 c-12 -21 -20 -46 -16 -54 4 -12 0 -14 -16 -10 -16 4 -23 0
-27 -16 -3 -11 -9 -19 -13 -16 -13 8 -23 -16 -12 -27 13 -13 126 97 116 113
-4 8 -9 7 -15 -2 -6 -10 -9 -10 -9 -2 0 7 8 16 18 22 12 7 14 13 6 20 -7 8
-17 0 -32 -28z m8 -41 c0 -5 -2 -10 -4 -10 -3 0 -8 5 -11 10 -3 6 -1 10 4 10
6 0 11 -4 11 -10z m-40 -40 c0 -5 -2 -10 -4 -10 -3 0 -8 5 -11 10 -3 6 -1 10
4 10 6 0 11 -4 11 -10z"/>
<path d="M95 250 c-4 -7 -2 -17 4 -23 6 -6 11 -18 11 -27 0 -8 14 -28 30 -43
17 -16 30 -24 30 -18 0 19 -21 66 -33 73 -7 4 -12 15 -12 24 0 21 -20 30 -30
14z m55 -64 c0 -3 -4 -8 -10 -11 -5 -3 -10 -1 -10 4 0 6 5 11 10 11 6 0 10 -2
10 -4z"/>
<path d="M179 153 c6 -13 9 -23 6 -23 -2 0 3 -9 12 -20 14 -15 20 -17 32 -7
12 10 14 9 8 -6 -4 -11 -3 -16 3 -12 6 3 10 1 10 -4 0 -17 17 -13 24 6 4 10 4
14 0 11 -3 -4 -16 2 -27 13 -12 11 -27 17 -34 15 -7 -3 -13 1 -13 8 0 7 -7 20
-17 27 -15 13 -15 12 -4 -8z"/>
<path d="M650 103 c-14 -7 -29 -14 -35 -17 -6 -2 -4 -9 4 -17 12 -12 13 -12 6
1 -8 13 -6 13 8 1 14 -11 21 -11 42 3 43 28 22 54 -25 29z"/>
<path d="M300 81 c0 -6 0 -14 0 -18 0 -5 4 -8 9 -8 5 0 13 -3 17 -7 4 -5 19
-8 33 -8 21 0 23 2 11 10 -9 6 -10 10 -3 10 6 0 14 -4 17 -9 7 -11 41 -7 41 5
0 5 -22 10 -50 12 -27 2 -55 8 -62 14 -9 7 -13 7 -13 -1z"/>
<path d="M553 72 c-24 -4 -31 -26 -12 -38 12 -7 43 19 38 33 -2 4 -14 7 -26 5z
m7 -22 c0 -5 -4 -10 -10 -10 -5 0 -10 5 -10 10 0 6 5 10 10 10 6 0 10 -4 10
-10z"/>
<path d="M476 62 c-20 -4 -54 -32 -39 -32 5 0 15 6 21 12 10 10 15 10 22 -2
10 -17 23 -8 18 12 -1 7 -12 12 -22 10z"/>
<path d="M2052 584 c-7 -14 -12 -44 -12 -68 0 -46 -10 -56 -55 -56 -13 0 -27
-5 -31 -12 -9 -14 40 -58 67 -58 30 0 23 -27 -22 -75 -43 -46 -47 -75 -11 -75
11 0 34 -14 51 -32 24 -25 34 -29 43 -20 9 9 9 15 0 24 -7 7 -12 17 -12 23 0
5 5 2 11 -7 18 -31 118 -18 146 18 10 14 16 10 43 -28 38 -52 58 -65 66 -44
10 26 -3 59 -41 100 -28 31 -35 46 -35 80 0 47 -15 73 -45 78 -29 5 -21 54 17
101 24 31 27 41 18 52 -21 25 -48 17 -66 -17 -21 -42 -17 -38 -58 -48 l-36 -8
0 38 c0 50 -22 70 -38 34z m100 -158 c-4 -35 12 -50 37 -37 19 11 21 9 21 -19
0 -29 -2 -30 -43 -30 -34 0 -49 -6 -69 -27 -14 -16 -28 -35 -31 -43 -3 -8 -6
1 -6 21 -1 22 7 46 19 62 24 31 27 62 4 53 -9 -3 -14 -3 -12 1 13 28 27 61 32
77 6 17 8 16 28 -10 13 -15 22 -37 20 -48z m28 -133 c9 -8 -17 -38 -45 -52
-23 -11 -29 -11 -41 1 -29 29 16 74 61 61 11 -3 22 -7 25 -10z m-137 -52 c-9
-13 -21 18 -16 39 7 25 7 25 13 -5 4 -16 5 -32 3 -34z"/>
<path d="M1784 523 c-14 -106 -11 -315 6 -347 30 -60 35 -40 34 152 -1 184 -7
252 -24 252 -5 0 -12 -26 -16 -57z"/>
<path d="M2646 550 c-20 -18 -36 -42 -37 -54 0 -18 -2 -17 -11 7 -15 40 -50
37 -71 -8 -9 -20 -17 -43 -17 -53 -1 -15 -2 -15 -15 2 -27 36 -45 13 -45 -61
-1 -37 -7 -85 -15 -107 -10 -30 -11 -43 -2 -57 7 -11 15 -19 19 -19 9 0 45 80
53 120 4 19 19 60 34 90 l26 55 5 -105 c5 -100 11 -130 29 -130 5 0 10 51 13
113 6 130 14 152 56 152 29 0 30 -1 16 -27 -18 -35 -18 -77 1 -84 12 -5 13
-23 9 -101 -5 -92 7 -160 26 -148 4 3 11 41 15 85 5 55 11 80 20 80 24 0 75
69 75 101 0 32 -38 79 -64 79 -11 0 -16 13 -18 48 -3 45 -5 47 -35 50 -23 2
-40 -5 -67 -28z m134 -147 c-1 -19 -22 -53 -34 -53 -8 0 -8 55 1 63 13 13 33
7 33 -10z"/>
<path d="M3095 570 c-4 -6 -11 -8 -16 -4 -6 3 -31 -5 -56 -17 l-45 -24 5 -63
c4 -62 -7 -92 -34 -92 -5 0 -9 -16 -9 -35 0 -19 -6 -44 -12 -55 -10 -16 -10
-22 0 -32 11 -11 17 -9 33 11 10 13 19 32 19 42 0 17 32 43 55 44 6 1 36 11
68 23 61 23 87 27 87 14 0 -10 -68 -32 -98 -32 -24 0 -48 -35 -32 -45 6 -4 17
-4 25 -2 7 3 16 0 19 -8 6 -16 -14 -25 -55 -25 -34 0 -37 -10 -9 -35 15 -13
30 -16 60 -12 29 4 40 1 40 -8 0 -21 -26 -36 -71 -42 -38 -6 -40 -7 -24 -20
22 -15 78 -17 105 -3 11 6 22 26 26 45 4 21 12 35 21 35 8 0 21 7 30 15 20 21
1 45 -37 45 -38 0 -43 10 -18 37 16 17 32 23 64 23 69 0 67 40 -3 55 l-33 6 7
62 c3 34 7 69 7 77 1 11 -8 14 -31 12 -18 -1 -33 2 -33 8 0 13 -47 13 -55 0z
m5 -45 c-12 -15 -40 -21 -40 -9 0 3 10 14 23 24 24 20 37 9 17 -15z m77 -32
c-3 -10 -5 -2 -5 17 0 19 2 27 5 18 2 -10 2 -26 0 -35z m-27 7 c0 -5 -2 -10
-4 -10 -3 0 -8 5 -11 10 -3 6 -1 10 4 10 6 0 11 -4 11 -10z m-111 -52 c0 -24
-4 -52 -8 -63 -6 -14 -9 -7 -14 29 -10 69 -9 76 8 76 11 0 15 -11 14 -42z m71
12 c0 -5 -7 -10 -16 -10 -8 0 -12 5 -9 10 3 6 10 10 16 10 5 0 9 -4 9 -10z
m52 -52 c-6 -6 -15 -8 -19 -4 -4 4 -1 11 7 16 19 12 27 3 12 -12z m-52 -7 c0
-5 -10 -11 -22 -14 -22 -6 -22 -6 -4 8 23 17 26 18 26 6z"/>
<path d="M1176 520 c-4 -28 -4 -56 0 -62 4 -7 7 -31 5 -53 -2 -44 17 -72 41
-60 7 4 2 -3 -11 -14 -26 -24 -37 -26 -46 -10 -4 6 -18 -5 -32 -26 -30 -45
-43 -34 -43 36 0 42 -20 79 -43 79 -11 0 -8 -49 4 -71 5 -11 11 -52 12 -92 3
-105 21 -102 88 13 6 11 11 12 20 3 9 -9 19 -9 42 3 l29 16 -31 -46 c-18 -25
-36 -46 -41 -46 -6 0 -10 -4 -10 -10 0 -18 28 -11 58 15 l30 25 7 -40 c9 -52
22 -51 37 4 10 39 14 43 31 35 23 -13 47 -5 47 16 0 18 -43 37 -65 29 -27 -11
-19 52 10 74 27 22 32 38 13 46 -9 3 -8 9 6 20 19 15 15 53 -4 41 -5 -3 -10 3
-10 14 0 12 6 21 13 21 22 0 49 37 45 62 -5 34 -51 35 -111 3 -27 -14 -50 -25
-51 -25 -2 0 -7 11 -10 25 -10 40 -23 29 -30 -25z m126 -18 c-27 -23 -31 -30
-20 -41 8 -9 9 -11 1 -7 -6 3 -23 -5 -37 -19 -49 -49 -65 -19 -19 36 25 29 73
58 98 58 6 0 -5 -12 -23 -27z m-26 -110 c-11 -10 -15 4 -8 28 l7 25 3 -23 c2
-13 1 -26 -2 -30z"/>
<path d="M3555 560 c-3 -5 -3 -10 1 -10 3 0 -2 -12 -11 -26 l-17 -27 33 7 c55
11 63 33 19 56 -13 7 -21 7 -25 0z"/>
<path d="M3416 523 c-4 -5 -19 -8 -32 -8 l-24 0 -4 -177 c-4 -157 1 -207 17
-181 3 5 11 71 17 148 7 77 16 144 21 150 5 5 9 0 9 -14 0 -12 5 -31 11 -43 9
-16 7 -23 -10 -35 -41 -28 -14 -48 43 -31 45 14 52 33 21 63 -25 23 -25 23 -9
64 9 22 14 48 10 56 -6 16 -57 21 -70 8z"/>
<path d="M1080 491 c0 -6 5 -13 11 -17 8 -4 7 -9 -2 -15 -19 -11 -6 -21 32
-22 26 -2 34 3 37 17 2 11 -4 26 -14 33 -21 15 -64 18 -64 4z"/>
<path d="M3543 476 c-24 -11 -34 -12 -39 -4 -11 18 -22 -23 -14 -52 8 -32 32
-32 40 0 6 27 42 50 78 50 25 0 30 -15 7 -24 -30 -11 -16 -29 17 -22 42 8 67
31 51 47 -18 18 -104 21 -140 5z"/>
<path d="M1517 442 c-10 -11 -17 -26 -15 -33 2 -9 -6 -14 -19 -14 -33 -1 -49
-20 -33 -40 7 -8 21 -15 31 -15 15 0 17 -7 12 -52 -6 -64 9 -111 35 -106 24 4
52 66 67 151 12 66 13 68 14 27 1 -25 -3 -72 -9 -104 -8 -51 -7 -63 7 -78 9
-10 22 -18 29 -18 39 0 47 174 12 245 -25 49 -37 56 -45 25 -7 -28 -35 -26
-31 3 4 29 -32 35 -55 9z m44 -103 c-5 -13 -10 -19 -10 -12 -1 15 10 45 15 40
3 -2 0 -15 -5 -28z"/>
<path d="M1700 370 c0 -55 5 -91 16 -112 23 -44 34 -19 29 67 -7 137 -45 174
-45 45z"/>
<path d="M3554 405 c-12 -9 -14 -14 -6 -15 7 0 10 -4 7 -10 -8 -12 25 -13 44
-1 16 11 8 41 -12 41 -7 0 -22 -7 -33 -15z"/>
<path d="M3565 355 c-27 -13 -57 -24 -66 -24 -20 -1 -33 -31 -20 -44 6 -6 18
-3 32 7 35 24 42 19 19 -14 -11 -16 -29 -43 -40 -60 -21 -30 -26 -50 -12 -50
4 0 26 28 50 62 l42 62 0 -56 c0 -70 11 -78 105 -78 102 0 123 22 91 95 l-14
30 -10 -25 c-14 -35 -30 -47 -78 -54 -56 -10 -67 5 -54 74 6 30 17 61 25 70
34 37 4 39 -70 5z"/>
<path d="M1040 81 c0 -14 11 -22 38 -29 31 -8 34 -11 18 -17 -11 -5 -27 -3
-38 4 -16 10 -19 10 -16 -1 3 -7 19 -13 39 -13 27 0 34 4 34 20 0 14 -8 21
-27 23 -16 2 -28 8 -28 14 0 6 12 8 30 5 17 -4 30 -2 30 3 0 6 -18 10 -40 10
-33 0 -40 -3 -40 -19z"/>
<path d="M1140 59 c0 -24 4 -38 10 -34 6 3 10 12 10 19 0 19 44 12 48 -7 2
-10 8 -15 13 -12 12 8 12 75 -1 75 -5 0 -10 -7 -10 -15 0 -9 -9 -15 -25 -15
-16 0 -25 6 -25 15 0 8 -4 15 -10 15 -5 0 -10 -18 -10 -41z"/>
<path d="M1242 63 c3 -36 5 -38 42 -41 25 -2 36 0 31 7 -3 6 -17 11 -31 11
-13 0 -24 5 -24 11 0 7 10 9 25 7 14 -3 28 -1 31 3 3 5 -9 9 -25 9 -41 0 -40
18 2 23 27 3 26 4 -11 5 l-43 2 3 -37z"/>
<path d="M1330 60 c0 -22 5 -40 10 -40 6 0 10 14 10 31 l0 31 26 -31 c34 -41
44 -39 44 9 0 22 -4 40 -10 40 -5 0 -10 -12 -10 -27 l-1 -28 -20 28 c-30 40
-49 35 -49 -13z"/>
<path d="M1463 91 l29 -6 -26 -24 c-35 -33 -33 -41 9 -41 19 0 35 5 35 11 0 7
-11 9 -26 6 -25 -4 -25 -4 7 29 l33 34 -45 -1 c-37 -1 -39 -2 -16 -8z"/>
<path d="M1530 60 c0 -22 5 -40 10 -40 6 0 10 8 10 18 0 24 44 23 48 -1 7 -33
22 -16 22 23 0 22 -4 40 -10 40 -5 0 -10 -7 -10 -15 0 -9 -9 -15 -25 -15 -16
0 -25 6 -25 15 0 8 -4 15 -10 15 -5 0 -10 -18 -10 -40z"/>
<path d="M1632 63 c3 -36 5 -38 42 -41 25 -2 36 0 31 7 -3 6 -17 11 -31 11
-16 0 -23 4 -18 11 3 6 15 9 25 6 10 -3 22 -1 25 4 3 5 -9 9 -25 9 -41 0 -40
18 2 23 27 3 26 4 -11 5 l-43 2 3 -37z"/>
<path d="M1720 60 c0 -22 5 -40 10 -40 6 0 10 14 10 31 l0 31 26 -31 c34 -41
44 -39 44 10 0 26 -4 38 -11 33 -6 -3 -9 -15 -6 -25 7 -27 -8 -24 -27 6 -26
39 -46 32 -46 -15z"/>
<path d="M1883 60 c0 -25 2 -35 4 -22 2 12 2 32 0 45 -2 12 -4 2 -4 -23z"/>
<path d="M1910 60 c0 -22 5 -40 10 -40 6 0 10 14 10 31 l0 31 26 -31 c34 -41
44 -39 44 9 0 22 -4 40 -10 40 -5 0 -10 -12 -10 -27 l-1 -28 -20 28 c-30 40
-49 35 -49 -13z"/>
<path d="M2020 81 c0 -14 11 -22 38 -29 31 -8 34 -11 18 -17 -11 -5 -27 -3
-38 4 -16 10 -19 10 -16 -1 3 -7 19 -13 39 -13 27 0 34 4 34 20 0 14 -8 21
-27 23 -16 2 -28 8 -28 14 0 6 12 8 30 5 17 -4 30 -2 30 3 0 6 -18 10 -40 10
-33 0 -40 -3 -40 -19z"/>
<path d="M2123 93 c12 -3 17 -15 17 -39 0 -21 4 -33 10 -29 6 3 10 19 10 35 0
15 6 31 13 33 6 3 -6 5 -28 5 -22 0 -32 -2 -22 -5z"/>
<path d="M2190 60 c0 -22 5 -40 10 -40 6 0 10 18 10 40 0 22 -4 40 -10 40 -5
0 -10 -18 -10 -40z"/>
<path d="M2228 93 c6 -2 12 -18 12 -33 0 -16 5 -32 10 -35 6 -4 10 8 10 29 0
24 5 36 18 39 9 3 -1 5 -23 5 -22 0 -34 -2 -27 -5z"/>
<path d="M2302 63 c3 -33 7 -38 31 -41 35 -4 57 13 57 44 0 15 6 24 15 24 10
0 15 -11 15 -35 0 -19 5 -35 10 -35 6 0 10 15 10 34 0 24 5 36 18 39 9 3 -7 5
-35 6 -52 1 -53 1 -53 -29 0 -25 -4 -30 -25 -30 -21 0 -25 5 -25 30 0 17 -5
30 -11 30 -6 0 -9 -16 -7 -37z"/>
<path d="M2477 68 c-6 -43 -2 -48 39 -48 21 0 33 4 29 10 -3 6 -17 10 -31 10
-16 0 -23 4 -18 11 3 6 15 9 25 6 10 -3 22 -1 25 4 3 5 -9 9 -25 9 -41 0 -40
18 2 23 l32 4 -36 1 c-34 2 -37 0 -42 -30z"/>
<path d="M2612 63 c3 -37 4 -38 43 -38 39 0 40 1 40 35 0 34 -1 35 -43 38
l-43 3 3 -38z m68 3 c0 -14 -5 -28 -10 -31 -17 -11 -50 5 -50 24 0 24 9 31 37
31 18 0 23 -6 23 -24z"/>
<path d="M2710 60 c0 -22 5 -40 10 -40 6 0 10 9 10 19 0 14 8 21 28 24 l27 4
-27 2 c-16 0 -28 5 -28 10 0 5 12 12 28 14 22 3 20 4 -10 6 -38 1 -38 1 -38
-39z"/>
<path d="M2843 93 c12 -3 17 -15 17 -39 0 -19 5 -34 10 -34 6 0 10 16 10 35 0
46 27 49 32 3 3 -30 6 -33 42 -36 25 -2 36 0 31 7 -3 6 -17 11 -31 11 -16 0
-23 4 -18 11 3 6 15 9 25 6 10 -3 22 -1 25 4 3 5 -9 9 -25 9 -41 0 -40 18 2
23 17 2 -6 4 -53 4 -47 0 -77 -1 -67 -4z"/>
<path d="M3004 86 c-3 -8 -4 -25 -2 -38 2 -19 10 -24 41 -26 29 -3 37 0 37 14
0 13 -3 14 -15 4 -21 -18 -45 -5 -45 25 0 27 26 35 48 13 9 -9 12 -8 12 5 0
22 -68 24 -76 3z"/>
<path d="M3101 61 c0 -24 2 -41 7 -37 4 4 7 13 7 19 0 20 46 15 55 -7 7 -16 9
-10 8 24 0 25 -2 37 -5 28 -3 -12 -14 -18 -33 -18 -19 0 -30 6 -33 18 -3 9 -5
-3 -6 -27z"/>
<path d="M3200 60 c0 -22 5 -40 10 -40 6 0 10 14 10 31 l0 31 26 -31 c34 -41
44 -39 44 9 0 22 -4 40 -10 40 -5 0 -10 -12 -10 -27 l-1 -28 -20 28 c-30 40
-49 35 -49 -13z"/>
<path d="M3312 63 c3 -37 4 -38 43 -38 39 0 40 1 40 35 0 34 -1 35 -43 38
l-43 3 3 -38z m68 3 c0 -14 -5 -28 -10 -31 -17 -11 -50 5 -50 24 0 24 9 31 37
31 18 0 23 -6 23 -24z"/>
<path d="M3410 60 l0 -40 41 0 c24 0 38 4 34 10 -3 6 -17 10 -31 10 -20 0 -24
5 -24 30 0 17 -4 30 -10 30 -5 0 -10 -18 -10 -40z"/>
<path d="M3494 85 c-4 -8 -3 -27 0 -41 6 -22 11 -25 44 -22 35 3 37 5 40 41
l3 37 -41 0 c-27 0 -43 -5 -46 -15z m74 -22 c3 -22 -28 -40 -48 -28 -12 7 -13
38 -3 49 15 14 48 1 51 -21z"/>
<path d="M3602 63 c3 -37 4 -38 43 -38 29 0 41 4 43 16 4 20 -27 34 -42 19 -7
-7 -4 -10 9 -10 14 0 16 -3 8 -11 -18 -18 -55 -1 -51 24 2 18 9 22 40 21 43
-1 68 -18 68 -45 0 -11 5 -19 10 -19 6 0 10 8 10 17 0 9 10 27 22 40 17 18 18
23 6 23 -9 0 -21 -7 -28 -15 -12 -14 -15 -14 -30 0 -10 9 -36 15 -64 15 l-47
0 3 -37z"/>
</g>
</svg>
