<?xml version="1.0" encoding="utf-8"?>
<!-- Generator: Adobe Illustrator 22.0.0, SVG Export Plug-In . SVG Version: 6.00 Build 0)  -->
<svg version="1.1" id="图层_1" xmlns="http://www.w3.org/2000/svg" xmlns:xlink="http://www.w3.org/1999/xlink" x="0px" y="0px"
     viewBox="0 0 100 100" style="enable-background:new 0 0 100 100;" xml:space="preserve">
<style type="text/css">
	.st0{clip-path:url(#SVGID_2_);fill:#95C9DB;}
	.st1{clip-path:url(#SVGID_2_);fill:none;stroke:#335EEA;stroke-width:6;stroke-linecap:round;stroke-miterlimit:10;}
	.st2{clip-path:url(#SVGID_2_);fill:url(#SVGID_3_);}
	.st3{clip-path:url(#SVGID_2_);fill:#335EEA;}
	.st4{clip-path:url(#SVGID_5_);}
	.st5{fill:#95C9DB;}
	.st6{fill:#FFFFFF;}
    .st7{fill:#1f2839;}
</style>
    <g>
	<defs>
		<rect id="SVGID_1_" x="-371" y="-247" width="841.9" height="595.3"/>
	</defs>
        <clipPath id="SVGID_2_">
		<use xlink:href="#SVGID_1_"  style="overflow:visible;"/>
	</clipPath>
        <path class="st0" d="M288.3-120.3c0,0-43.5,49.4-4,74.6c39.5,25.2,62-49.4,62-49.4L288.3-120.3z"/>
        <path class="st1" d="M-254.5-148.3c-11.3,13.8-27.5,18.5-38.6,9.3c-11.1-9.1-11.2-25.5,0.1-39.2"/>

        <linearGradient id="SVGID_3_" gradientUnits="userSpaceOnUse" x1="-369.0449" y1="347.9938" x2="-368.0449" y2="347.9938" gradientTransform="matrix(44.5941 0 0 -44.5941 16161.0957 15377.1719)">
		<stop  offset="0" style="stop-color:#335EEA"/>
            <stop  offset="0.729" style="stop-color:#0D2D7B"/>
            <stop  offset="1" style="stop-color:#0D2D7B"/>
	</linearGradient>
        <path class="st2" d="M-252.6-146.7c-7.7,9.4-17.6,14.9-27.3,15c-5.3,0-10.4-1.7-14.8-5.3c-1.1-0.9-1.2-2.5-0.3-3.5
		c0.9-1.1,2.5-1.2,3.5-0.3c3.5,2.9,7.4,4.1,11.6,4.2c7.7,0,16.5-4.6,23.5-13.1c0.9-1.1,2.5-1.2,3.5-0.3
		C-251.9-149.4-251.7-147.8-252.6-146.7L-252.6-146.7z"/>
        <path class="st3" d="M-281.7-186c0,2.8-2.2,5-5,5c-2.8,0-5-2.2-5-5c0-2.8,2.2-5,5-5C-283.9-191-281.7-188.8-281.7-186"/>
</g>
    <text transform="matrix(1 0 0 1 -294.4268 -145.9984)" style="fill:#4C8BBF; font-family:'ComicSansMS'; font-size:60px;">a</text>
    <g>
	<defs>
		<rect id="SVGID_4_" x="-42" y="-39" width="841.9" height="595.3"/>
	</defs>
        <clipPath id="SVGID_5_">
		<use xlink:href="#SVGID_4_"  style="overflow:visible;"/>
	</clipPath>
        <g class="st4">
		<path class="st5" d="M617.3,87.7c0,0-43.5,49.4-4,74.6c39.5,25.2,62-49.4,62-49.4L617.3,87.7z"/>
	</g>
        <g class="st4">
		<path class="st7" d="M49,76.7c-5.5,0-10.7-1.7-15.1-5.4c-12.5-10.2-12.6-28.5-0.3-43.5c1.1-1.3,2.9-1.5,4.2-0.4
			c1.3,1.1,1.5,2.9,0.4,4.2c-10.2,12.5-10.5,26.9-0.5,35c9.5,7.8,23.6,4.2,34.4-8.9c1.1-1.3,2.9-1.5,4.2-0.4
			c1.3,1.1,1.5,2.9,0.4,4.2C68.7,71.4,58.5,76.7,49,76.7z"/>
	</g>
        <g class="st4">
		<path class="st7" d="M47.3,22c0,2.8-2.2,5-5,5c-2.8,0-5-2.2-5-5c0-2.8,2.2-5,5-5C45.1,17,47.3,19.2,47.3,22"/>
	</g>
</g>
    <g>
	<path class="st7" d="M61.5,63.9c-0.4,0-1-0.4-2-1.3c-0.9-0.8-1.5-1.5-2-2.1c-1.9,1-3.5,1.8-5,2.3c-1.4,0.5-2.6,0.8-3.6,0.8
		c-4.6,0-7.9-1.3-10-3.9c-2-2.4-3-6.1-3-11.1c0-4.7,1.6-8.8,4.9-12.1c3.3-3.4,7.1-5,11.6-5c1.7,0,3.6,0.4,5.7,1.3c2.7,1.1,4,2.4,4,4
		c0,0.5-0.2,1-0.6,1.4c-0.2,0.7-0.3,2-0.5,3.7s-0.2,3.9-0.2,6.5c0,2.4,0.1,4.3,0.5,5.7c0.2,0.9,0.8,2.6,1.8,5.2
		c0.1,0.4,0.4,0.9,0.7,1.6l0.2,0.5c0,0.8-0.3,1.4-0.8,1.9C62.9,63.7,62.2,63.9,61.5,63.9z M55.4,43.6c0-0.8,0.1-1.8,0.2-2.7
		c0.1-1,0.3-2,0.5-3.1c-0.7-0.4-1.3-0.6-1.9-0.8s-0.9-0.3-1.2-0.3c-3,0-5.6,1.2-7.8,3.7c-2.2,2.5-3.3,5.3-3.3,8.5
		c0,3.2,0.6,5.6,1.7,7.2c1.1,1.6,2.8,2.4,5.1,2.4c1.9,0,3.5-0.3,4.8-1c0.7-0.4,1.7-1.1,3-2.2C55.7,50,55.4,46.2,55.4,43.6z"/>
</g>
</svg>
